<?xml version="1.0" encoding="UTF-8"?>
<svg xmlns="http://www.w3.org/2000/svg" width="500" height="500" viewBox="0 0 500 500" fill="none">
  <mask id="mask0_89_776" style="mask-type:luminance" maskUnits="userSpaceOnUse" x="264" y="389" width="2" height="2">
    <path d="M264.479 389.073H265.92V390.786H264.479V389.073Z" fill="white"></path>
  </mask>
  <g mask="url(#mask0_89_776)">
    <path d="M265.072 389.27C264.17 390.244 265.205 390.496 265.211 390.761C266.449 388.901 264.845 389.151 265.072 389.27Z" fill="#D60A0A"></path>
  </g>
  <path d="M277.215 370.863L277.272 371.416L278.571 368.29L277.215 370.863Z" fill="#D60A0A"></path>
  <path d="M290.112 354.933C287.639 355.393 285.656 360.887 282.913 363.352L282.247 363.581L282.221 365.707C284.856 362.125 287.798 357.075 290.112 354.933Z" fill="#D60A0A"></path>
  <path d="M299.675 348.664C298.763 348.786 300.729 346.465 297.929 350.531C298.135 350.382 298.212 350.352 298.341 350.274C298.609 349.919 298.992 349.446 299.675 348.664Z" fill="#D60A0A"></path>
  <path d="M298.341 350.272C299.637 349.511 297.027 351.99 298.341 350.272Z" fill="#D60A0A"></path>
  <path d="M304.287 342.235L302.953 344.825C303.615 344.601 305.258 342.669 304.883 343.579C306.458 341.094 305.794 341.327 304.287 342.235Z" fill="#D60A0A"></path>
  <path d="M305.042 339.362L304.311 340.67C304.592 340.567 304.879 340.297 305.042 339.362Z" fill="#D60A0A"></path>
  <path d="M302.756 343.444L304.311 340.671C303.851 340.825 303.414 340.522 303.559 341.912C303.345 341.403 303.32 342.183 302.756 343.444Z" fill="#D60A0A"></path>
  <path d="M301.46 344.668C300.187 345.691 298.729 347.159 300.076 344.565C296.85 348.963 298.238 349.072 301.46 344.668Z" fill="#D60A0A"></path>
  <path d="M289.465 353.033L287.761 354.387L287.025 356.175C287.395 355.284 289.943 353.26 289.465 353.033Z" fill="#D60A0A"></path>
  <path d="M315.941 328.84C315.78 328.479 314.631 329.009 314.154 328.897L313.164 330.804C314.021 330.108 315.452 328.626 315.941 328.84Z" fill="#D60A0A"></path>
  <path d="M314.155 328.897L315.63 326.038C313.843 328.208 313.748 328.794 314.155 328.897Z" fill="#D60A0A"></path>
  <path d="M303.954 337.812L301.711 342.654L304.56 337.02L303.954 337.812Z" fill="#D60A0A"></path>
  <path d="M323.376 319.368L322.907 321.285L323.908 318.009L323.376 319.368Z" fill="#D60A0A"></path>
  <path d="M328.141 312.952C327.858 314.417 330.131 312.216 329.6 313.582C330.83 311.785 331.509 309.958 332.113 308.306C331.269 309.901 330.059 311.354 328.141 312.952Z" fill="#D60A0A"></path>
  <path d="M333.219 305.609C332.809 306.414 332.478 307.322 332.113 308.306C332.561 307.461 332.949 306.586 333.219 305.609Z" fill="#D60A0A"></path>
  <path d="M319.066 321.918C319.379 321.859 320.095 321.834 321.359 320.583L319.837 320.949C319.602 321.243 319.336 321.579 319.066 321.918Z" fill="#D60A0A"></path>
  <path d="M319.786 320.963L319.837 320.948C320.679 319.899 321.268 319.176 321.521 318.867C321.301 319.132 320.78 319.763 319.786 320.963Z" fill="#D60A0A"></path>
  <path d="M318.873 322.174C318.948 322.08 319.003 322.01 319.075 321.918C318.92 321.954 318.85 321.994 318.873 322.174Z" fill="#D60A0A"></path>
  <path d="M309.753 331.903C310.475 330.106 312.403 326.711 309.449 329.109C309.149 330.573 310.837 329.198 309.753 331.903Z" fill="#D60A0A"></path>
  <path d="M316.973 322.609L314.74 325.1C314.982 325.21 315.646 324.972 315.293 325.866L316.973 322.609Z" fill="#D60A0A"></path>
  <path d="M317.736 321.121L316.973 322.609L317.8 321.682L317.736 321.121Z" fill="#D60A0A"></path>
  <path d="M329.026 309.607C329.572 308.196 330.496 306.91 331.526 305.447C330.213 306.851 328.942 308.369 327.794 309.857C327.875 310.259 327.803 311.257 329.026 309.607Z" fill="#D60A0A"></path>
  <path d="M324.482 315.093C324.527 314.997 324.596 314.883 324.637 314.793C324.447 314.901 324.326 315.015 324.482 315.093Z" fill="#D60A0A"></path>
  <path d="M342.099 291.379C341.998 291.425 341.895 291.452 341.79 291.498C341.822 291.551 341.856 291.597 341.884 291.654L342.099 291.379Z" fill="#D60A0A"></path>
  <path d="M327.456 310C326.432 311.024 326.097 311.854 325.834 312.693C326.412 311.777 327.057 310.835 327.796 309.859C327.758 309.677 327.7 309.603 327.456 310Z" fill="#D60A0A"></path>
  <path d="M335.826 301.411C335.215 301.886 334.566 302.459 333.898 303.071C334.587 302.68 335.868 301.782 335.826 301.411Z" fill="#D60A0A"></path>
  <path d="M325.139 314.577C325.107 314.644 325.08 314.707 325.041 314.776C325.493 314.532 325.379 314.516 325.139 314.577Z" fill="#D60A0A"></path>
  <path d="M325.139 314.577C325.48 313.902 325.645 313.288 325.832 312.691C325.36 313.435 324.947 314.142 324.63 314.791C324.794 314.695 324.985 314.619 325.139 314.577Z" fill="#D60A0A"></path>
  <path d="M340.273 283.281C340.852 284.036 339.266 287.58 336.554 289.602C335.183 292.59 338.791 292.735 341.788 291.496C341.533 291.175 341.244 290.952 342.79 287.969C341.704 288.598 337.499 293.153 338.51 290.414C340.746 286.615 340.901 287.731 342.55 286.312C340.582 287.084 344.53 280.823 342.642 280.59L340.845 284.034C340.599 283.935 341.091 282.566 340.273 283.281Z" fill="#D60A0A"></path>
  <path d="M337.949 296.498L337.22 297.654C338.274 296.51 339.236 295.85 341.017 294.639C342.019 292.545 342.03 291.963 341.886 291.654C341.886 291.654 340.862 292.981 339.836 294.309C338.806 295.632 337.777 296.954 337.777 296.954L337.949 296.498Z" fill="#D60A0A"></path>
  <path d="M333.546 302.544C333.416 301.091 335.04 298.215 332.998 299.159C330.65 302.388 331.961 301.896 330.858 304.062C334.562 298.781 330.17 305.876 333.428 302.514C332.794 303.627 332.145 304.566 331.526 305.447C332.323 304.596 333.116 303.797 333.898 303.071C333.846 303.103 333.808 303.126 333.76 303.151L333.745 303.177C333.741 303.172 333.743 303.166 333.735 303.164C333.471 303.309 333.356 303.334 333.602 303.13C333.606 303.105 333.649 303.04 333.668 303.009C333.585 302.891 333.565 302.721 333.551 302.548C334.842 301.188 333.93 302.474 333.668 303.009C333.692 303.057 333.698 303.126 333.735 303.164C333.745 303.162 333.752 303.156 333.76 303.153C333.76 303.153 333.977 302.809 334.303 302.296C334.628 301.781 335.059 301.095 335.492 300.408C336.355 299.033 337.22 297.658 337.22 297.658C336.289 298.663 335.288 300.053 333.546 302.544Z" fill="#D60A0A"></path>
  <path d="M309.924 325.069C310.115 324.966 310.164 325.018 310.23 325.052C310.391 324.648 310.423 324.47 309.924 325.069Z" fill="#D60A0A"></path>
  <path d="M312.019 323.358C311.837 323.814 311.902 324.371 310.886 325.504C309.841 326.357 310.522 325.201 310.228 325.05C309.866 325.937 308.799 328.025 310.944 326.061L311.12 325.618C312.981 323.791 315.991 321.941 315.818 322.382C314.661 322.422 313.757 322.55 312.019 323.358Z" fill="#D60A0A"></path>
  <path d="M322.732 312.7L325.622 308.142L323.287 309.779L323.773 309.988C321.761 312.281 322.655 312.153 322.732 312.7Z" fill="#D60A0A"></path>
  <path d="M342.855 291.183L343.256 292.392L343.941 288.999L342.855 291.183Z" fill="#D60A0A"></path>
  <path d="M346.908 285.474L347.478 286.231L348.134 284.41L346.908 285.474Z" fill="#D60A0A"></path>
  <path d="M176.075 121.732C176.075 121.732 175.715 121.715 175.353 121.723C174.993 121.726 174.633 121.73 174.633 121.73C175.306 121.766 175.749 121.747 176.075 121.732Z" fill="#D60A0A"></path>
  <path d="M186.014 124.698L186.41 124.37C185.87 124.421 185.618 124.536 186.014 124.698Z" fill="#D60A0A"></path>
  <path d="M335.089 136.675C333.968 136.021 332.773 135.207 331.852 134.764C330.935 134.305 330.32 134.133 330.401 134.667L331.014 135.781C332.75 135.853 334.033 136.25 335.089 136.675Z" fill="#D60A0A"></path>
  <path d="M246.645 189.154C246.703 189.514 246.761 189.888 246.821 190.262C247.011 190.262 247.183 190.247 247.345 190.22C247.506 190.195 247.654 190.159 247.789 190.108C247.465 189.879 247.08 189.547 246.645 189.154Z" fill="#D60A0A"></path>
  <path d="M243.967 193.17L242.463 188.37C242.735 189.48 243.204 191.015 243.967 193.17Z" fill="#D60A0A"></path>
  <path d="M130.109 142.998C130.109 142.998 130.119 143.48 130.145 143.963C130.158 144.201 130.169 144.442 130.181 144.621C130.19 144.798 130.199 144.919 130.199 144.919C130.498 144.365 130.664 143.997 130.738 143.747C130.816 143.5 130.8 143.37 130.734 143.295C130.603 143.143 130.271 143.212 130.109 142.998Z" fill="#D60A0A"></path>
  <path d="M381.758 221.068C381.975 220.578 382.174 220.109 382.354 219.659C382.529 219.208 382.68 218.774 382.821 218.358C383.108 217.526 383.299 216.75 383.468 216.025C382.442 218.449 381.116 220.212 381.758 221.068Z" fill="#D60A0A"></path>
  <path d="M182.759 112.365C181.72 112.279 181.247 112.379 181.225 112.602C181.752 112.648 182.174 112.659 182.444 112.623C182.714 112.592 182.832 112.516 182.759 112.365Z" fill="#D60A0A"></path>
  <path d="M384.412 209.932C384.265 210.292 384.168 210.652 384.037 211.021C384.033 211.217 384.025 211.412 384.022 211.61C384.01 211.806 384.001 212.005 383.988 212.201C383.963 212.598 383.933 213 383.894 213.412C383.857 213.824 383.793 214.244 383.725 214.679C383.652 215.112 383.581 215.562 383.47 216.025C384.232 214.246 384.847 212.102 384.412 209.932Z" fill="#D60A0A"></path>
  <path d="M214.038 327.57C214.139 327.705 214.278 327.84 214.363 327.974C214.483 327.898 214.31 327.753 214.038 327.57Z" fill="#D60A0A"></path>
  <path d="M261.537 373.706C260.965 373.403 260.086 372.823 259.251 372.287C259.617 372.612 260.297 373.054 261.537 373.706Z" fill="#D60A0A"></path>
  <path d="M363.559 262.454C363.522 262.717 362.787 263.76 363.559 262.454Z" fill="#D60A0A"></path>
  <path d="M356.285 266.322C356.371 265.994 356.39 265.713 356.223 265.551C356.35 265.79 356.358 266.049 356.285 266.322Z" fill="#D60A0A"></path>
  <path d="M378.719 194.414C378.719 194.372 378.718 194.336 378.716 194.286C378.551 194.74 378.583 194.662 378.719 194.414Z" fill="#D60A0A"></path>
  <path d="M361.939 264.109C362.35 263.703 362.792 263.211 363.244 262.654C363.008 262.873 362.607 263.312 361.939 264.109Z" fill="#D60A0A"></path>
  <path d="M362.496 264.115C362.172 264.527 361.928 264.857 361.691 265.17C361.723 265.423 361.901 265.339 362.496 264.115Z" fill="#D60A0A"></path>
  <path d="M364.647 260.634C364.195 261.376 363.724 262.04 363.244 262.654C363.462 262.442 363.572 262.366 363.559 262.454C363.786 262.066 364.105 261.525 364.647 260.634Z" fill="#D60A0A"></path>
  <path d="M135.466 239.526C135.481 239.627 135.511 239.736 135.52 239.851C136.537 240.982 136.195 240.432 135.466 239.526Z" fill="#D60A0A"></path>
  <path d="M298.306 149.932C298.364 149.898 298.388 149.86 298.439 149.826C298.372 149.838 298.29 149.856 298.231 149.87L298.306 149.932Z" fill="#D60A0A"></path>
  <path d="M294.148 152.63C294.478 152.119 294.806 151.722 295.129 151.39C295.292 151.226 295.453 151.081 295.614 150.951C295.776 150.82 295.941 150.709 296.106 150.618C296.438 150.427 296.773 150.286 297.124 150.167C297.299 150.108 297.477 150.057 297.661 150.005C297.754 149.981 297.846 149.956 297.94 149.931C298.036 149.91 298.133 149.889 298.231 149.868C298.231 149.868 298.067 149.736 297.826 149.542C297.584 149.349 297.261 149.097 296.933 148.846C296.278 148.342 295.607 147.846 295.607 147.846C295.607 147.846 295.504 148.146 295.352 148.592C295.198 149.033 295.011 149.639 294.829 150.242C294.649 150.843 294.476 151.44 294.35 151.886C294.289 152.107 294.238 152.292 294.202 152.422C294.167 152.553 294.148 152.63 294.148 152.63Z" fill="#D60A0A"></path>
  <mask id="mask1_89_776" style="mask-type:luminance" maskUnits="userSpaceOnUse" x="110" y="111" width="276" height="270">
    <path d="M110.375 111.013H385.829V380.772H110.375V111.013Z" fill="white"></path>
  </mask>
  <g mask="url(#mask1_89_776)">
    <path d="M152.22 123.085C152.22 123.085 152.428 123.078 152.741 123.064C152.895 123.059 153.077 123.051 153.27 123.045C153.368 123.042 153.467 123.038 153.568 123.032C153.67 123.032 153.775 123.034 153.88 123.036C154.703 123.047 155.526 123.059 155.526 123.059C154.696 123.679 153.906 124.113 153.272 124.533C152.95 124.731 152.659 124.903 152.406 125.052C152.278 125.122 152.164 125.201 152.061 125.271C151.958 125.342 151.866 125.407 151.785 125.468C151.462 125.706 151.333 125.864 151.474 125.975C151.545 126.03 151.684 126.072 151.899 126.108C152.006 126.126 152.132 126.143 152.28 126.156C152.426 126.171 152.591 126.179 152.783 126.206C152.71 125.819 152.826 125.466 153.092 125.138C153.227 124.975 153.398 124.817 153.6 124.663C153.702 124.585 153.809 124.512 153.927 124.436C154.041 124.359 154.17 124.3 154.302 124.235C154.564 124.106 154.855 123.982 155.163 123.862C155.47 123.74 155.796 123.618 156.143 123.528C156.835 123.343 157.569 123.133 158.324 123.007C158.699 122.933 159.075 122.858 159.446 122.784C159.819 122.721 160.189 122.668 160.545 122.601C160.903 122.538 161.248 122.458 161.58 122.397C161.912 122.336 162.229 122.269 162.523 122.189C162.818 122.111 163.088 122.023 163.332 121.92C163.577 121.829 163.795 121.727 163.979 121.605C164.348 121.365 164.583 121.058 164.631 120.663C164.631 120.663 164.768 120.701 164.974 120.757C165.076 120.783 165.196 120.816 165.323 120.852C165.451 120.892 165.588 120.936 165.725 120.978C166.265 121.151 166.807 121.325 166.807 121.325C166.188 121.285 166.087 121.47 165.475 121.43C166 121.626 166.437 121.739 166.818 121.785C167.007 121.808 167.182 121.813 167.345 121.808C167.51 121.806 167.662 121.794 167.806 121.767C168.384 121.664 168.83 121.371 169.323 121.047C169.82 120.732 170.366 120.408 171.143 120.209C171.336 120.163 171.544 120.116 171.769 120.095C171.994 120.076 172.234 120.066 172.495 120.074C172.757 120.08 173.037 120.101 173.337 120.139C173.487 120.156 173.642 120.181 173.804 120.207C173.965 120.242 174.132 120.282 174.303 120.326C174.779 120.471 175.216 120.619 175.58 120.768C175.943 120.909 176.232 121.077 176.42 121.212C176.795 121.487 176.757 121.691 176.073 121.735C176.073 121.735 176.349 121.745 176.759 121.758C176.966 121.766 177.207 121.773 177.464 121.781C177.594 121.787 177.729 121.79 177.864 121.794C177.999 121.804 178.138 121.813 178.276 121.823C178.83 121.861 179.383 121.901 179.799 121.93C180.009 121.943 180.182 121.96 180.304 121.975C180.424 121.989 180.493 121.994 180.493 121.994C181.708 122.412 181.255 122.849 180.058 122.439C180.058 122.439 180.463 122.54 181.069 122.691C181.373 122.767 181.727 122.857 182.106 122.952C182.483 123.059 182.884 123.175 183.286 123.291C184.094 123.509 184.889 123.78 185.489 123.974C185.787 124.071 186.037 124.152 186.213 124.209C186.386 124.27 186.483 124.306 186.483 124.306L186.404 124.373C186.935 124.325 187.779 124.325 188.636 124.359C189.484 124.417 190.346 124.502 190.911 124.577C191.605 125.162 191.37 125.141 190.999 125.046C190.813 124.995 190.588 124.934 190.425 124.918C190.262 124.901 190.164 124.93 190.226 125.063C190.226 125.063 190.284 125.077 190.388 125.099C190.491 125.122 190.637 125.153 190.81 125.201C191.158 125.29 191.627 125.41 192.092 125.531C192.327 125.592 192.561 125.651 192.781 125.708C193 125.767 193.203 125.83 193.377 125.881C193.726 125.983 193.958 126.053 193.958 126.053C194.461 126.776 193.917 126.942 192.985 126.772C192.52 126.681 191.946 126.532 191.348 126.322C191.048 126.217 190.746 126.095 190.444 125.963C190.144 125.832 189.838 125.704 189.551 125.559C190.039 126.62 190.442 127.213 190.907 127.548C191.138 127.716 191.382 127.823 191.65 127.903C191.916 127.983 192.201 128.05 192.52 128.113C193.158 128.248 193.941 128.389 194.896 128.876C195.376 129.116 195.912 129.414 196.479 129.858C197.047 130.295 197.679 130.825 198.328 131.538C198.328 131.538 198.133 131.439 197.838 131.292C197.55 131.14 197.15 130.96 196.754 130.775C196.359 130.592 195.963 130.411 195.667 130.272C195.52 130.201 195.395 130.15 195.307 130.114C195.219 130.077 195.168 130.055 195.168 130.055C195.305 130.383 195.457 130.692 195.627 130.98C195.802 131.266 195.993 131.531 196.207 131.781C196.415 132.034 196.653 132.261 196.891 132.503C197.13 132.742 197.386 132.978 197.657 133.213C197.925 133.453 198.213 133.682 198.499 133.942C198.784 134.199 199.078 134.468 199.378 134.754C199.528 134.895 199.68 135.044 199.832 135.197C199.984 135.349 200.128 135.517 200.28 135.685C200.578 136.024 200.877 136.389 201.173 136.783C201.081 136.534 200.756 135.984 200.372 135.319C200.183 134.981 199.965 134.63 199.755 134.275C199.547 133.919 199.342 133.556 199.17 133.213C198.999 132.868 198.847 132.555 198.754 132.28C198.66 132.008 198.622 131.775 198.667 131.609C198.712 131.443 198.838 131.344 199.072 131.334C199.191 131.329 199.335 131.348 199.509 131.392C199.686 131.433 199.89 131.504 200.124 131.611C200.526 132.04 201.021 132.486 201.677 132.929C201.998 133.16 202.362 133.385 202.78 133.606C202.988 133.716 203.211 133.825 203.448 133.932C203.682 134.043 203.926 134.157 204.188 134.266C203.858 134.714 204.149 135.216 204.783 135.805C205.09 136.11 205.482 136.442 205.927 136.801C206.148 136.984 206.386 137.159 206.626 137.369C206.868 137.577 207.118 137.79 207.375 138.01L206.266 138.99C207.476 139.791 208.14 140.056 208.74 140.176C209.036 140.237 209.314 140.268 209.623 140.331C209.927 140.398 210.263 140.495 210.683 140.684C210.958 140.989 211.197 141.275 211.399 141.546C211.596 141.82 211.759 142.082 211.894 142.328C212.162 142.818 212.314 143.249 212.393 143.638C212.541 144.431 212.399 145.057 212.303 145.664C212.509 145.913 212.684 146.116 212.836 146.28C212.982 146.446 213.104 146.571 213.203 146.661C213.404 146.84 213.52 146.88 213.582 146.825C213.708 146.718 213.614 146.24 213.55 145.768C213.486 145.299 213.441 144.847 213.695 144.782C213.818 144.752 214.019 144.817 214.321 145.034C214.619 145.255 215.022 145.625 215.559 146.194C216.768 148.061 217.948 149.505 219.298 150.979C219.983 151.708 220.692 152.457 221.487 153.251C222.265 154.059 223.126 154.914 224.056 155.906C224.396 156.627 224.497 156.991 224.463 157.151C224.431 157.311 224.27 157.264 224.075 157.161C223.683 156.96 223.158 156.552 223.3 157.134C223.3 157.134 223.458 157.235 223.692 157.388C223.925 157.542 224.236 157.75 224.547 157.956C224.859 158.166 225.17 158.375 225.404 158.532C225.639 158.686 225.793 158.795 225.793 158.795C226.136 159.388 225.718 159.4 225.508 159.405C226.323 160.271 226.657 160.113 227.075 160.102C227.495 160.088 227.992 160.227 229.138 161.715C230.082 161.717 230.58 163.687 231.276 166.033C231.97 168.387 232.85 171.116 234.733 172.737C234.898 173.952 233.69 172.676 233.354 173.256C233.853 173.891 234.279 174.435 234.65 174.91C235.018 175.388 235.331 175.798 235.605 176.157C236.158 176.876 236.552 177.404 236.947 177.891C237.343 178.377 237.733 178.829 238.256 179.409C238.519 179.699 238.815 180.021 239.164 180.397C239.252 180.49 239.34 180.587 239.434 180.69C239.483 180.74 239.53 180.792 239.577 180.845L239.652 180.925C239.682 180.961 239.714 180.999 239.744 181.039C239.984 181.337 240.241 181.657 240.52 182.003C240.52 182.003 240.983 183.536 241.446 185.07C241.955 186.723 242.461 188.377 242.461 188.377C242.131 187.017 242.127 186.328 242.32 186.05C242.515 185.773 242.907 185.907 243.386 186.229C243.866 186.553 244.434 187.065 244.998 187.6C245.567 188.136 246.135 188.693 246.641 189.157C246.347 187.246 246.189 185.829 246.054 185.016C246.054 185.016 246.217 185.253 246.463 185.607C246.696 185.939 247.007 186.382 247.32 186.824C247.611 187.225 247.903 187.629 248.121 187.93C248.329 188.209 248.468 188.394 248.468 188.394C248.644 189.351 248.353 189.903 247.785 190.109C247.982 190.253 248.162 190.364 248.303 190.41C248.64 191.795 248.698 192.725 248.539 193.299C248.38 193.873 248.005 194.047 247.523 193.976C247.249 192.683 247.014 191.425 246.817 190.263C246.328 190.263 245.784 190.206 245.319 190.303C244.854 190.402 244.466 190.662 244.342 191.419C244.651 191.684 245.135 192.397 245.621 193.265C245.312 193.168 245.073 193.166 245.116 193.61C245.167 194.093 245.681 194.434 246.347 194.999C246.347 194.999 246.397 196.088 246.476 197.245C246.551 198.396 246.658 199.611 246.658 199.611C246.658 199.611 246.752 199.427 246.847 199.246C246.941 199.057 247.033 198.869 247.033 198.869L248.772 203.629L249.681 206.099L249.914 206.726L249.97 206.883L250.024 206.952L250.129 207.091C250.272 207.278 250.416 207.47 250.559 207.671L251.718 205.393C252.142 203.772 252.532 202.202 252.897 200.68C253.278 199.151 253.629 197.677 253.961 196.259C254.632 193.431 255.223 190.824 255.827 188.51C255.902 188.222 255.975 187.934 256.05 187.642C256.125 187.354 256.196 187.068 256.279 186.801C256.436 186.279 256.594 185.745 256.757 185.199C256.92 184.675 257.072 184.148 257.246 183.649C257.421 183.151 257.597 182.657 257.777 182.167C257.959 181.675 258.13 181.192 258.34 180.711C258.518 180.275 258.705 179.826 258.906 179.371C259.101 178.911 259.328 178.457 259.564 177.99C259.802 177.522 260.048 177.044 260.318 176.561C260.213 177.814 260.562 178.18 261.063 178.354C261.567 178.526 262.227 178.505 262.781 178.955C262.158 179.231 261.646 179.741 261.207 180.406C260.991 180.744 260.793 181.12 260.601 181.522C260.555 181.625 260.508 181.726 260.459 181.829C260.434 181.882 260.412 181.934 260.388 181.987C260.348 182.066 260.309 182.146 260.269 182.226C260.129 182.52 259.998 182.836 259.861 183.157C259.583 183.815 259.296 184.495 259.002 185.195C258.925 185.375 258.848 185.554 258.773 185.735C258.694 185.916 258.625 186.111 258.55 186.302C258.4 186.685 258.246 187.074 258.087 187.465C257.927 187.856 257.762 188.251 257.591 188.646C257.505 188.84 257.419 189.037 257.333 189.235C257.248 189.441 257.164 189.649 257.079 189.857C256.738 190.688 256.376 191.505 255.997 192.262C256.785 190.685 257.199 190.25 257.381 190.362C257.565 190.475 257.503 191.165 257.361 191.789C257.361 191.789 257.436 191.564 257.565 191.173C257.631 190.978 257.708 190.742 257.8 190.471C257.89 190.2 258.002 189.931 258.115 189.62C258.343 189.019 258.61 188.314 258.895 187.56C259.035 187.19 259.178 186.807 259.324 186.429C259.478 186.067 259.636 185.699 259.791 185.331C260.093 184.614 260.397 183.897 260.682 183.225C260.75 183.059 260.821 182.901 260.888 182.746C260.95 182.603 261.068 182.38 261.085 182.315C261.164 182.115 261.239 181.926 261.307 181.755C261.582 181.057 261.766 180.593 261.766 180.593C262.203 180.982 262.612 180.753 263.096 180.25C263.338 179.998 263.6 179.676 263.893 179.329C264.191 178.985 264.532 178.621 264.913 178.274C264.23 178.257 264.013 177.898 264.097 177.313C264.172 176.721 264.579 175.928 265.112 175.035C265.372 174.587 265.684 174.129 266.002 173.662C266.16 173.43 266.323 173.195 266.484 172.958C266.646 172.722 266.807 172.487 266.972 172.262C267.3 171.805 267.615 171.354 267.895 170.927C268.033 170.714 268.167 170.506 268.292 170.309C268.418 170.111 268.529 169.922 268.626 169.739C268.981 169.918 269.179 170.284 268.962 170.956C268.849 171.29 268.652 171.713 268.313 172.228C268.144 172.485 267.942 172.766 267.7 173.073C267.458 173.378 267.193 173.725 266.882 174.093C267.859 173.508 268.448 172.871 268.821 172.167C269.189 171.459 269.382 170.723 269.56 169.962C269.652 169.584 269.736 169.199 269.858 168.827C269.978 168.457 270.125 168.093 270.32 167.738C270.518 167.387 270.757 167.042 271.081 166.731C271.407 166.42 271.807 166.132 272.3 165.879C271.66 166.586 271.212 166.872 271.246 167.424C271.495 166.895 271.957 166.285 272.482 165.675C272.744 165.368 273.039 165.078 273.331 164.797C273.626 164.521 273.922 164.256 274.207 164.019C274.488 163.781 274.772 163.582 275.019 163.418C275.271 163.254 275.492 163.132 275.67 163.058C276.024 162.909 276.203 162.961 276.084 163.302L275.411 163.96C276.008 163.453 276.655 162.85 277.38 162.242C277.739 161.929 278.108 161.608 278.487 161.278C278.873 160.958 279.267 160.628 279.663 160.288C279.861 160.119 280.06 159.949 280.261 159.777C280.465 159.611 280.672 159.444 280.876 159.276C281.285 158.936 281.697 158.595 282.108 158.255C282.946 157.595 283.757 156.907 284.563 156.281C284.961 155.957 285.351 155.642 285.729 155.337C286.112 155.038 286.48 154.74 286.83 154.45C287.005 154.303 287.175 154.159 287.342 154.019C287.511 153.882 287.674 153.747 287.834 153.617C288.151 153.35 288.447 153.092 288.715 152.843C288.85 152.717 288.978 152.595 289.099 152.476C289.221 152.36 289.34 152.249 289.448 152.139C289.666 151.919 289.852 151.71 290.005 151.513C290.309 151.12 290.474 150.777 290.463 150.502C290.549 150.6 290.643 151.225 290.703 151.891C290.763 152.556 290.791 153.26 290.725 153.523C290.725 153.523 290.827 153.348 291.001 153.045C291.089 152.892 291.196 152.705 291.32 152.492C291.382 152.385 291.447 152.27 291.519 152.15C291.592 152.032 291.667 151.91 291.746 151.782C292.064 151.269 292.441 150.666 292.858 150.014C293.278 149.375 293.747 148.702 294.221 148.015C294.456 147.668 294.703 147.34 294.947 147.01C295.194 146.682 295.438 146.358 295.673 146.043C296.145 145.404 296.614 144.847 297.015 144.351C297.42 143.859 297.76 143.442 298.006 143.159C298.253 142.881 298.392 142.721 298.392 142.721C298.182 143.693 299.356 144.792 299.948 145.997C300.25 146.6 300.412 147.228 300.226 147.865C300.134 148.185 299.95 148.494 299.662 148.832C299.373 149.163 298.971 149.505 298.429 149.846C298.788 149.77 299.165 149.688 299.572 149.581C299.774 149.53 299.984 149.467 300.204 149.406C300.425 149.346 300.656 149.278 300.894 149.202C301.372 149.051 301.882 148.841 302.454 148.601C303.024 148.366 303.645 148.069 304.329 147.702C303.829 147.729 303.067 147.331 302.576 146.856C302.086 146.383 301.873 145.831 302.521 145.547C303.048 145.629 303.482 145.686 303.853 145.747C304.226 145.812 304.53 145.86 304.796 145.896C305.325 145.967 305.695 145.988 306.085 145.994C306.477 146.011 306.899 146.02 307.516 146.055C307.825 146.076 308.181 146.093 308.611 146.142C309.042 146.198 309.545 146.268 310.135 146.362C309.385 146.316 309.278 145.57 309.676 144.784C309.777 144.59 309.907 144.39 310.066 144.199C310.227 144.01 310.415 143.825 310.632 143.672C311.066 143.363 311.602 143.135 312.208 143.068C311.889 143.516 312.735 145.637 311.932 146.035C311.932 146.035 312.268 145.82 312.774 145.5C313.284 145.187 313.976 144.796 314.68 144.39C315.032 144.184 315.388 143.997 315.726 143.823C316.064 143.648 316.38 143.484 316.652 143.341C316.926 143.199 317.157 143.081 317.316 142.999C317.476 142.923 317.569 142.879 317.569 142.879C316.827 143.148 316.799 143.714 317.112 144.277C317.427 144.832 318.08 145.446 318.73 145.791C318.423 145.549 319.672 145.498 321.189 145.572C321.945 145.585 322.768 145.671 323.497 145.709C324.227 145.738 324.863 145.795 325.253 145.759C325.253 145.759 325.103 145.707 324.878 145.631C324.655 145.559 324.353 145.448 324.051 145.36C323.441 145.181 322.834 145.004 322.834 145.004C323.242 145.046 323.629 145.07 323.991 145.078C324.173 145.08 324.347 145.086 324.52 145.091C324.688 145.093 324.855 145.093 325.017 145.088C325.662 145.072 326.237 144.981 326.763 144.882C327.289 144.782 327.773 144.641 328.235 144.481C328.465 144.401 328.694 144.313 328.917 144.224C329.14 144.14 329.364 144.058 329.585 143.974C330.474 143.64 331.385 143.276 332.492 143.148C332.769 143.112 333.06 143.087 333.364 143.075C333.518 143.07 333.673 143.068 333.835 143.068C333.996 143.07 334.157 143.085 334.328 143.098C334.665 143.127 335.02 143.177 335.395 143.241C335.77 143.312 336.169 143.381 336.582 143.512C336.464 143.55 336.333 143.619 336.199 143.714C336.066 143.814 335.929 143.939 335.804 144.084C335.55 144.374 335.34 144.744 335.262 145.135C335.181 145.528 335.232 145.946 335.494 146.329C335.757 146.726 336.227 147.102 337.006 147.401C337.233 147.296 337.537 147.134 337.898 146.97C338.26 146.806 338.69 146.613 339.177 146.413C339.421 146.312 339.68 146.209 339.954 146.104C340.226 145.999 340.513 145.892 340.807 145.801C341.402 145.612 342.045 145.427 342.731 145.257C342.904 145.215 343.078 145.175 343.255 145.137C343.429 145.105 343.605 145.072 343.785 145.04C344.145 144.979 344.513 144.924 344.89 144.876C345.267 144.83 345.651 144.786 346.039 144.761C346.426 144.744 346.818 144.737 347.213 144.74C347.609 144.744 348.01 144.76 348.414 144.784C348.817 144.809 349.213 144.874 349.616 144.937C350.415 145.072 351.223 145.248 351.992 145.54L352.721 146.808C352.721 146.808 352.796 146.835 352.924 146.878C353.055 146.92 353.239 146.989 353.457 147.077C353.897 147.247 354.482 147.477 355.069 147.706C355.216 147.765 355.364 147.823 355.508 147.88C355.651 147.941 355.789 148.002 355.924 148.063C356.196 148.183 356.45 148.296 356.667 148.391C357.102 148.584 357.393 148.711 357.393 148.711C356.932 148.702 356.378 148.677 355.763 148.639C355.152 148.593 354.458 148.57 353.725 148.536C352.991 148.502 352.224 148.454 351.416 148.446C351.019 148.437 350.612 148.427 350.201 148.418C349.998 148.414 349.792 148.408 349.588 148.404C349.381 148.406 349.171 148.408 348.965 148.408C348.552 148.41 348.138 148.414 347.722 148.416H347.107C346.904 148.416 346.694 148.429 346.491 148.433C346.086 148.446 345.681 148.458 345.28 148.473C344.882 148.488 344.498 148.486 344.112 148.515C343.343 148.557 342.611 148.593 341.938 148.616C341.253 148.664 340.625 148.698 340.066 148.713C341.118 149.415 341.195 149.68 341.45 149.921C341.572 150.045 341.737 150.165 342.082 150.334C342.255 150.42 342.472 150.518 342.752 150.634C343.029 150.752 343.376 150.874 343.787 151.059C344.008 151.355 343.978 151.513 343.798 151.58C343.708 151.614 343.581 151.624 343.427 151.618C343.273 151.61 343.093 151.586 342.896 151.559C342.502 151.5 342.052 151.397 341.64 151.284C341.434 151.227 341.235 151.17 341.06 151.115C340.882 151.065 340.723 151.021 340.599 150.981C340.599 150.981 340.717 151.033 340.925 151.12C341.132 151.21 341.42 151.353 341.771 151.517C342.12 151.683 342.529 151.874 342.966 152.08C343.393 152.301 343.849 152.539 344.305 152.778C344.53 152.898 344.762 153.007 344.98 153.136C345.199 153.26 345.415 153.384 345.623 153.504C346.038 153.745 346.428 153.966 346.76 154.157C347.407 154.565 347.838 154.836 347.838 154.836C347.943 154.452 348.384 154.359 348.999 154.429C349.601 154.519 350.379 154.769 351.155 155.034C351.915 155.33 352.68 155.629 353.282 155.787C353.871 155.965 354.31 155.984 354.43 155.673C354.43 155.673 354.299 155.608 354.07 155.494C353.953 155.436 353.815 155.37 353.655 155.291C353.498 155.209 353.306 155.135 353.108 155.045C352.706 154.868 352.239 154.664 351.739 154.443C351.493 154.328 351.223 154.235 350.957 154.128C350.69 154.023 350.42 153.918 350.15 153.811C349.878 153.708 349.614 153.598 349.344 153.502C349.074 153.411 348.807 153.321 348.551 153.233C348.295 153.146 348.05 153.062 347.814 152.982C347.581 152.902 347.362 152.822 347.152 152.764C346.324 152.52 345.775 152.358 345.775 152.358C345.858 151.965 346.308 151.668 347.037 151.494C347.399 151.41 347.84 151.345 348.326 151.338C348.809 151.334 349.351 151.366 349.935 151.439C350.525 151.504 351.137 151.649 351.782 151.826C352.104 151.916 352.434 152.017 352.768 152.127C353.1 152.244 353.427 152.385 353.762 152.53C354.096 152.677 354.435 152.835 354.771 153.003C354.944 153.085 355.107 153.178 355.27 153.275C355.435 153.373 355.598 153.472 355.763 153.575C356.09 153.779 356.416 153.994 356.737 154.22C356.9 154.33 357.053 154.454 357.205 154.58C357.359 154.706 357.511 154.834 357.661 154.963C358.106 155.711 357.44 156.06 356.662 156.304C355.879 156.545 354.992 156.686 354.886 156.937C355.122 156.939 355.548 157.126 356.073 157.395C356.333 157.531 356.618 157.687 356.913 157.861C357.205 158.036 357.49 158.242 357.779 158.444C358.066 158.646 358.347 158.856 358.61 159.058C358.878 159.257 359.101 159.474 359.304 159.663C359.707 160.044 359.977 160.361 360.013 160.523C360.013 160.523 359.413 160.237 358.813 159.949C358.664 159.878 358.514 159.808 358.376 159.741C358.231 159.68 358.098 159.623 357.982 159.575C357.753 159.48 357.601 159.415 357.601 159.415C358.141 160.054 358.698 160.544 359.321 160.935C359.632 161.131 359.955 161.307 360.264 161.498C360.583 161.683 360.9 161.868 361.222 162.055C361.879 162.425 362.479 162.892 363.045 163.487C363.184 163.636 363.323 163.794 363.452 163.966C363.578 164.141 363.696 164.328 363.809 164.528C364.034 164.927 364.234 165.375 364.401 165.879C364.591 166.17 364.726 166.609 364.849 167.078C364.909 167.315 364.964 167.561 365.018 167.803C365.043 167.925 365.069 168.047 365.097 168.167C365.118 168.289 365.138 168.41 365.159 168.528C365.324 169.47 365.508 170.201 365.958 170.054C366.104 168.667 367.21 167.063 368.516 165.873C369.821 164.683 371.353 163.947 372.377 164.319C372.43 164.456 372.657 165.024 372.96 165.829C373.234 166.651 373.6 167.698 373.891 168.812C374.5 171.028 374.911 173.42 374.828 174.404C374.678 175.84 373.555 175.264 372.469 174.711C371.353 174.158 370.265 173.63 370.14 174.784C370.348 174.732 370.702 174.946 371.053 175.23C371.391 175.522 371.724 175.88 371.906 176.102C372.03 176.87 371.668 176.847 371.454 177.004C371.237 177.164 371.171 177.49 371.811 178.972C372.218 178.966 372.548 179.361 372.81 179.874C372.945 180.13 373.043 180.42 373.133 180.702C373.221 180.984 373.294 181.259 373.352 181.492C373.472 181.955 373.514 182.258 373.549 182.106C373.587 181.951 373.577 181.358 373.545 180.008C373.883 180.75 374.108 181.333 374.241 181.852C374.372 182.373 374.44 182.821 374.5 183.29C374.551 183.759 374.586 184.249 374.673 184.85C374.721 185.152 374.761 185.483 374.824 185.855C374.884 186.227 374.973 186.637 375.065 187.105C375.453 186.41 376.439 187.076 377.461 188.394C378.457 189.708 379.438 191.693 379.792 193.402C379.586 193.318 379.372 193.481 379.187 193.709C378.997 193.94 378.826 194.238 378.721 194.43C378.883 197.909 378.65 200.587 378.341 203.173C378.02 205.76 377.617 208.262 377.139 211.437C376.908 211.701 376.572 212.578 376.207 213.202C375.85 213.827 375.5 214.205 375.284 213.505C375.31 213.741 375.359 213.976 375.402 214.224C375.443 214.474 375.485 214.737 375.515 215.035C375.543 215.33 375.558 215.656 375.545 216.032C375.524 216.406 375.473 216.825 375.378 217.308C375.113 217.735 374.924 217.985 374.791 218.101C374.658 218.22 374.586 218.206 374.556 218.101C374.498 217.897 374.588 217.331 374.673 216.736C374.716 216.44 374.761 216.135 374.779 215.866C374.796 215.595 374.793 215.359 374.751 215.199C374.671 214.878 374.436 214.867 373.906 215.479C374.116 215.586 374.234 215.96 374.282 216.507C374.335 217.056 374.331 217.781 374.269 218.578C374.241 218.977 374.213 219.396 374.164 219.82C374.117 220.245 374.069 220.676 374.022 221.1C373.981 221.529 373.917 221.945 373.87 222.349C373.821 222.749 373.787 223.138 373.75 223.493C374.538 223.291 375.065 221.737 375.357 219.877C375.642 218.012 375.672 215.858 375.651 214.436C376.124 214.523 376.542 214.912 376.897 215.565C377.257 216.217 377.527 217.129 377.716 218.258C377.894 219.383 377.977 220.724 377.93 222.221C377.908 222.969 377.84 223.755 377.758 224.573C377.707 224.981 377.649 225.395 377.587 225.818C377.553 226.03 377.519 226.242 377.487 226.457C377.446 226.669 377.403 226.884 377.36 227.098C376.692 229.801 376.21 230.268 375.877 230.171C375.554 230.079 375.398 229.446 375.365 229.94C374.868 231.13 374.498 232.166 374.217 233.091C374.149 233.321 374.08 233.545 374.012 233.758C373.949 233.972 373.887 234.18 373.832 234.382C373.722 234.784 373.632 235.164 373.557 235.524C373.403 236.243 373.326 236.89 373.253 237.479C373.18 238.069 373.139 238.61 373.092 239.139C373 240.193 372.913 241.204 372.493 242.373C372.287 242.961 372.01 243.596 371.627 244.305C371.531 244.483 371.43 244.666 371.319 244.853C371.205 245.036 371.085 245.227 370.956 245.421C370.697 245.81 370.408 246.222 370.082 246.659C368.752 247.88 368.204 247.611 367.841 247.077C367.477 246.543 367.3 245.745 366.742 245.862C367.149 244.83 367.587 243.964 368.041 243.203C368.48 242.432 368.926 241.761 369.369 241.137C370.271 239.896 371.072 238.788 371.676 237.412C371.676 237.412 371.164 238.193 370.65 238.971C370.393 239.358 370.144 239.749 369.943 240.035C369.742 240.321 369.609 240.51 369.609 240.51C369.746 239.795 370.02 238.723 370.402 237.681C370.594 237.159 370.809 236.642 371.038 236.171C371.252 235.696 371.481 235.269 371.717 234.937C371.454 235.204 371.158 235.65 370.817 236.236C370.462 236.814 370.07 237.533 369.648 238.357C369.435 238.769 369.226 239.211 368.986 239.665C368.752 240.121 368.506 240.598 368.251 241.09C368.002 241.584 367.743 242.095 367.477 242.619C367.207 243.14 366.92 243.668 366.635 244.208C366.348 244.746 366.057 245.293 365.763 245.846C365.464 246.396 365.146 246.941 364.836 247.49C364.523 248.04 364.208 248.587 363.895 249.133C363.574 249.676 363.242 250.204 362.916 250.731C362.588 251.253 362.263 251.77 361.939 252.274C361.612 252.775 361.275 253.254 360.949 253.721C360.292 254.654 359.664 255.522 359.032 256.268C358.642 257.656 357.717 259.911 358.736 259.232L359.912 257.05C360.934 256.361 360.602 257.528 360.266 258.575C359.932 259.623 359.596 260.548 360.63 259.344C360.482 259.748 360.332 260.157 360.178 260.572C360.02 260.986 359.861 261.406 359.698 261.833C359.366 262.688 359.015 263.574 358.595 264.463C358.173 265.35 357.691 266.252 357.125 267.154C356.555 268.055 355.887 268.947 355.109 269.832L353.468 269.733C353.856 269.891 355.891 267.706 356.283 266.37C355.99 267.358 354.578 268.56 353.282 269.861C351.977 271.154 350.786 272.552 350.9 273.963C350.9 273.963 351.572 273.441 352.241 272.918C352.911 272.392 353.58 271.865 353.58 271.865C352.232 275.014 351.007 279.26 348.211 282.33C350.43 281.644 348.65 281.472 351.677 280.059C350.116 280.484 351.696 278.361 353.134 276.355C353.496 275.855 353.847 275.365 354.141 274.926C354.435 274.486 354.668 274.095 354.794 273.803C355.043 273.218 354.857 273.017 353.837 273.546C355.469 272.859 356.397 271.907 357.344 270.816C357.82 270.273 358.306 269.699 358.897 269.113C359.484 268.526 360.17 267.917 361.063 267.315C360.838 267.234 360.457 267.402 360.405 267.24C360.377 267.16 360.431 266.996 360.63 266.678C360.823 266.357 361.168 265.892 361.697 265.178C361.672 264.969 361.738 264.557 361.787 264.299C361.856 264.215 361.884 264.189 361.946 264.118C361.894 264.168 361.847 264.2 361.794 264.251C361.823 264.084 361.817 264.065 361.738 264.301C361.108 264.89 360.536 265.325 360.168 265.405C360.195 264.894 360.399 264.21 360.71 263.456C361.02 262.697 361.438 261.869 361.854 261.032C362.687 259.356 363.585 257.708 363.835 256.743C365.108 255.072 363.827 257.774 364.84 257.061C364.84 257.061 365.035 256.346 365.23 255.629C365.326 255.272 365.423 254.914 365.496 254.645C365.564 254.374 365.609 254.193 365.609 254.193C366.117 254.341 367.184 253.353 367.882 252.899C368.576 252.446 368.9 252.528 367.899 254.847C367.899 254.847 368.474 253.878 369.05 252.911C369.345 252.43 369.613 251.932 369.823 251.564C370.033 251.194 370.172 250.95 370.172 250.95C370.618 250.439 371.079 249.861 371.524 249.245C371.957 248.62 372.381 247.958 372.771 247.29C373.562 245.968 374.161 244.584 374.47 243.464C374.613 243.233 374.742 242.978 374.856 242.709C374.914 242.574 374.969 242.436 375.019 242.297C375.068 242.158 375.111 242.013 375.153 241.872C375.32 241.303 375.436 240.744 375.518 240.308C375.682 239.438 375.7 239.058 375.678 240.083C375.678 240.083 375.826 239.657 376.051 239.02C376.107 238.86 376.167 238.688 376.231 238.505C376.289 238.32 376.351 238.126 376.415 237.924C376.542 237.519 376.681 237.088 376.818 236.659C376.955 236.228 377.09 235.797 377.217 235.395C377.281 235.194 377.345 235 377.401 234.815C377.456 234.628 377.506 234.45 377.551 234.286C377.735 233.634 377.859 233.199 377.859 233.199L378.121 233.232C378.286 232.82 378.444 232.402 378.598 231.982C378.748 231.561 378.905 231.141 379.031 230.703C379.29 229.835 379.534 228.956 379.77 228.065C379.83 227.842 379.888 227.621 379.946 227.396C380.006 227.172 380.055 226.942 380.107 226.715C380.212 226.259 380.319 225.803 380.422 225.343C380.614 224.42 380.826 223.495 381.009 222.559C381.405 220.691 381.788 218.792 382.268 216.877C382.755 214.96 383.303 213.015 384.04 211.027C384.076 209.799 384.072 208.552 384.128 207.108C384.147 206.385 384.205 205.616 384.254 204.768C384.282 204.344 384.319 203.906 384.363 203.442C384.398 202.979 384.441 202.492 384.496 201.983C384.496 201.983 384.725 201.791 384.951 201.596C385.18 201.401 385.4 201.203 385.4 201.203C385.28 199.614 385.48 197.23 385.505 195.046C385.507 194.501 385.503 193.969 385.49 193.467C385.477 192.968 385.432 192.496 385.385 192.075C385.293 191.232 385.111 190.585 384.843 190.271C385.829 188.417 385.405 184.413 384.199 180.301C384.048 179.788 383.888 179.27 383.729 178.756C383.551 178.245 383.372 177.732 383.196 177.223C383.024 176.714 382.817 176.216 382.632 175.724C382.44 175.23 382.257 174.744 382.052 174.273C381.857 173.8 381.668 173.338 381.48 172.89C381.285 172.445 381.098 172.012 380.923 171.597C380.835 171.387 380.751 171.183 380.668 170.981C380.582 170.782 380.499 170.588 380.417 170.397C380.256 170.017 380.111 169.655 379.985 169.31L378.853 169.617C378.65 169.169 378.429 168.73 378.209 168.291L377.874 167.635C377.752 167.422 377.63 167.208 377.51 166.992C377.262 166.567 377.013 166.138 376.749 165.715C376.475 165.293 376.193 164.874 375.907 164.448C375.627 164.021 375.301 163.609 374.982 163.182C374.661 162.758 374.331 162.329 373.992 161.894C373.632 161.475 373.264 161.048 372.885 160.607C372.696 160.39 372.505 160.168 372.31 159.947C372.113 159.726 371.899 159.514 371.691 159.293L371.07 160.166C370.671 159.829 370.279 159.442 369.89 159.013C369.793 158.906 369.695 158.795 369.6 158.683C369.498 158.574 369.397 158.461 369.296 158.349C369.091 158.124 368.889 157.887 368.685 157.641C368.278 157.151 367.874 156.621 367.426 156.098C367.207 155.831 366.985 155.558 366.76 155.282C366.533 155.007 366.318 154.714 366.074 154.441C365.592 153.884 365.099 153.316 364.598 152.734C364.073 152.173 363.531 151.61 362.974 151.046L362.764 150.834L362.546 150.632C362.398 150.497 362.252 150.365 362.104 150.23C361.806 149.963 361.506 149.697 361.202 149.434C361.048 149.305 360.896 149.169 360.739 149.045L360.257 148.679C359.934 148.437 359.608 148.198 359.278 147.968C359.566 147.933 360.032 148.181 360.523 148.547C361.02 148.904 361.511 149.429 361.896 149.881C361.605 149.465 361.297 149.059 360.964 148.679C360.626 148.309 360.27 147.952 359.898 147.613C359.167 146.913 358.34 146.339 357.496 145.786C357.282 145.65 357.072 145.509 356.853 145.387C356.632 145.263 356.41 145.143 356.187 145.025C355.741 144.786 355.291 144.559 354.837 144.338C354.381 144.121 353.91 143.936 353.449 143.741C352.982 143.552 352.519 143.358 352.05 143.186C351.581 143.02 351.11 142.858 350.643 142.694C350.178 142.532 349.719 142.362 349.25 142.221C348.787 142.072 348.327 141.922 347.875 141.765C347.648 141.689 347.425 141.605 347.198 141.531C346.973 141.458 346.75 141.384 346.527 141.307C346.083 141.153 345.647 140.993 345.218 140.821C345.113 140.779 345.006 140.735 344.901 140.689C344.794 140.647 344.685 140.607 344.58 140.567C344.368 140.483 344.158 140.396 343.95 140.306C343.536 140.125 343.129 139.932 342.735 139.721C342.339 139.509 341.945 139.307 341.569 139.07C340.693 138.99 339.974 138.818 339.326 138.631C338.682 138.435 338.118 138.176 337.568 137.893C337.724 137.93 337.865 137.951 337.992 137.951C337.825 137.891 337.574 137.821 337.311 137.764C336.616 137.415 335.899 137.026 335.099 136.677C335.757 137.081 336.379 137.449 336.94 137.68C336.618 137.609 336.25 137.535 335.852 137.459C335.453 137.382 335.024 137.306 334.568 137.256C334.114 137.201 333.639 137.148 333.156 137.104C332.912 137.081 332.67 137.056 332.424 137.043C332.179 137.033 331.931 137.026 331.683 137.016C331.683 137.016 331.518 136.707 331.357 136.4C331.19 136.091 331.025 135.782 331.025 135.782C330.862 135.773 330.735 135.75 330.566 135.742C330.101 135.559 329.761 135.505 329.536 135.521C329.309 135.536 329.195 135.628 329.169 135.771C329.116 136.055 329.412 136.537 329.864 137.016C328.865 137.081 327.951 137.19 327.239 137.378C326.898 136.898 326.402 136.667 325.825 136.562C325.534 136.511 325.225 136.488 324.902 136.48C324.581 136.476 324.246 136.503 323.908 136.52C323.569 136.537 323.227 136.554 322.888 136.556C322.549 136.558 322.215 136.534 321.887 136.499C321.232 136.421 320.615 136.205 320.079 135.723C319.417 136.183 316.962 136.415 314.586 136.913C313.991 137.047 313.404 137.199 312.851 137.357C312.575 137.436 312.305 137.52 312.05 137.603C311.795 137.695 311.551 137.796 311.326 137.897C310.419 138.303 309.77 138.755 309.599 139.284C309.547 139.162 309.378 139.097 309.348 139.038C309.331 139.007 309.352 138.979 309.438 138.944C309.524 138.91 309.68 138.87 309.933 138.832C309.665 138.839 309.398 138.86 309.132 138.885C308.868 138.91 308.601 138.935 308.337 138.958C308.073 138.986 307.808 139.015 307.547 139.049C307.287 139.082 307.026 139.122 306.771 139.179C306.263 139.288 305.764 139.419 305.286 139.583C305.048 139.667 304.811 139.755 304.584 139.86C304.359 139.97 304.14 140.089 303.924 140.218C303.924 140.218 303.617 139.936 303.309 139.652C302.996 139.372 302.683 139.089 302.683 139.089C302.683 139.089 302.428 139.282 302.047 139.57C301.672 139.869 301.181 140.276 300.697 140.678C300.455 140.878 300.213 141.079 299.988 141.267C299.763 141.456 299.558 141.647 299.382 141.801C299.031 142.114 298.797 142.322 298.797 142.322C298.433 142.337 298.094 142.349 297.782 142.354C297.471 142.36 297.194 142.375 296.946 142.372C296.451 142.366 296.087 142.32 295.883 142.202C295.474 141.965 295.705 141.447 296.852 140.411C296.117 140.924 295.496 141.349 294.954 141.708C294.416 142.07 293.97 142.389 293.572 142.648C293.177 142.909 292.835 143.121 292.528 143.314C292.22 143.51 291.948 143.688 291.68 143.857C291.414 144.029 291.153 144.195 290.879 144.38C290.742 144.473 290.602 144.571 290.454 144.676C290.311 144.784 290.159 144.903 290.002 145.03C289.366 145.547 288.576 146.205 287.535 147.283L287.344 146.343C286.9 146.606 286.416 146.959 285.939 147.369C285.471 147.786 284.981 148.221 284.512 148.641C284.274 148.843 284.049 149.051 283.826 149.238C283.603 149.425 283.385 149.593 283.171 149.736C282.748 150.025 282.344 150.201 281.988 150.22C281.399 150.365 280.658 150.676 279.796 151.12C279.372 151.353 278.918 151.622 278.438 151.919C278.198 152.07 277.95 152.226 277.697 152.39C277.446 152.558 277.195 152.738 276.934 152.921C276.673 153.108 276.409 153.298 276.137 153.495C275.867 153.691 275.587 153.893 275.314 154.113C274.764 154.546 274.194 155.002 273.611 155.476C273.041 155.972 272.452 156.48 271.852 157.002C271.261 157.536 270.666 158.095 270.057 158.66C267.649 160.946 265.22 163.535 262.925 166.13C260.626 168.726 258.462 171.326 256.468 173.592C258.218 173.403 257.175 174.358 255.935 175.611C255.302 176.231 254.636 176.941 254.208 177.582C254.154 177.662 254.105 177.742 254.06 177.818C254.039 177.856 254.019 177.894 253.996 177.934L253.97 177.986L253.964 178.003C253.963 178.016 253.964 178.024 253.961 178.043C253.955 178.064 253.951 178.081 253.949 178.102C253.946 178.142 253.944 178.182 253.948 178.222C253.964 178.388 254.053 178.568 254.24 178.758C253.893 178.728 253.565 178.808 253.334 178.736C253.1 178.667 252.971 178.44 252.946 177.936C252.77 178.541 252.515 179.05 252.267 179.428C252.029 179.817 251.787 180.076 251.603 180.349C251.414 180.622 251.258 180.896 251.138 181.406C251.076 181.659 251.016 181.972 250.956 182.38C250.902 182.792 250.846 183.3 250.776 183.954C250.679 183.473 250.711 182.872 250.733 182.373C250.758 181.869 250.773 181.453 250.705 181.194C250.686 181.394 250.641 181.808 250.579 182.121C250.518 182.43 250.448 182.634 250.399 182.327C250.354 182.018 250.379 181.654 250.416 181.286C250.454 180.916 250.512 180.538 250.542 180.156C250.45 180.404 250.383 180.715 250.319 181.089C250.294 181.224 250.272 181.369 250.249 181.52C250.236 181.6 250.225 181.68 250.214 181.755C250.21 181.781 250.208 181.781 250.204 181.789L250.176 181.852C250.124 181.968 250.073 182.121 250.019 182.302C249.916 182.664 249.807 183.143 249.698 183.696C249.479 184.799 249.27 186.227 249.072 187.621C248.717 185.821 248.5 184.913 248.198 184.421C247.896 183.935 247.521 183.898 246.87 183.904C246.853 183.166 246.819 182.378 246.941 182.031C247.061 181.682 247.316 181.743 247.828 182.59C247.714 182.283 247.483 181.657 247.202 180.893C246.924 180.151 246.6 179.325 246.255 178.577C246.169 178.39 246.08 178.207 245.987 178.026C245.855 177.77 245.724 177.521 245.6 177.278C245.282 176.679 244.966 176.134 244.672 175.682C244.085 174.776 243.558 174.242 243.211 174.362C243.25 173.599 241.975 171.679 241.574 171.265C241.049 170.201 240.644 169.38 240.301 168.682C239.952 167.984 239.665 167.41 239.378 166.836C239.082 166.268 238.781 165.707 238.406 165.034C238.031 164.362 237.57 163.586 236.968 162.587L237.396 163.836C236.788 163.657 236.349 163.369 235.991 162.993C235.633 162.617 235.361 162.148 235.1 161.603C234.845 161.053 234.581 160.439 234.262 159.76C233.945 159.077 233.545 158.345 233.009 157.574L233.217 157.569C232.353 155.564 231.738 154.391 231.267 153.636C230.798 152.877 230.489 152.53 230.174 152.188C229.54 151.504 229.001 150.806 227.047 146.907L226.449 147.95C225.86 148.149 225.369 147.813 224.876 147.163C224.632 146.837 224.39 146.426 224.146 145.959C223.904 145.49 223.64 144.975 223.372 144.418C223.237 144.142 223.096 143.855 222.955 143.566C222.811 143.274 222.657 142.984 222.501 142.688C222.346 142.395 222.184 142.097 222.016 141.801C221.851 141.504 221.676 141.21 221.489 140.924C221.119 140.354 220.725 139.795 220.298 139.289C219.863 138.788 219.396 138.332 218.897 137.949L219.638 139.705C219.036 139.343 218.574 138.673 218.171 137.844C217.967 137.43 217.781 136.976 217.603 136.495C217.515 136.255 217.429 136.009 217.344 135.757C217.258 135.507 217.172 135.254 217.085 135.002C216.742 133.985 216.418 132.931 216.037 132.013C215.849 131.552 215.656 131.117 215.452 130.732C215.244 130.348 215.019 130.02 214.784 129.753C214.627 129.469 214.861 129.57 215.227 129.801C215.409 129.917 215.626 130.064 215.842 130.215C216.054 130.369 216.266 130.522 216.446 130.642C215.904 129.866 215.439 129.316 215.075 128.904C214.707 128.494 214.432 128.237 214.209 128.09C213.755 127.798 213.556 127.937 213.368 128.157C213.179 128.376 213.003 128.676 212.596 128.712C212.391 128.729 212.132 128.681 211.787 128.527C211.442 128.372 211.017 128.103 210.454 127.712C210.3 127.089 210.859 126.902 211.11 126.57C211.234 126.404 211.281 126.2 211.118 125.88C211.035 125.721 210.9 125.532 210.696 125.307C210.595 125.193 210.475 125.073 210.338 124.939C210.197 124.808 210.034 124.672 209.852 124.522C209.71 124.316 209.443 124.091 209.079 123.846C208.714 123.602 208.254 123.333 207.712 123.07C207.172 122.803 206.561 122.519 205.908 122.219C205.25 121.937 204.545 121.636 203.819 121.327C203.097 121.018 202.343 120.718 201.608 120.385C201.242 120.215 200.869 120.059 200.503 119.896C200.138 119.731 199.778 119.561 199.427 119.383C199.078 119.202 198.733 119.023 198.394 118.847C198.056 118.668 197.732 118.481 197.422 118.287C197.111 118.092 196.82 117.88 196.533 117.68C196.25 117.476 195.986 117.264 195.738 117.041C196.494 118.077 197.193 119.084 194.738 118.399C193.855 118.014 192.863 117.467 191.82 116.81C191.293 116.492 190.746 116.166 190.193 115.832C189.913 115.666 189.637 115.491 189.351 115.334C189.065 115.176 188.777 115.02 188.488 114.867C187.342 114.234 186.149 113.728 185.013 113.395C184.441 113.242 183.88 113.145 183.342 113.105C183.074 113.088 182.811 113.086 182.556 113.101C182.301 113.114 182.05 113.164 181.808 113.223C181.369 112.941 181.226 112.742 181.241 112.592C180.864 112.559 180.431 112.51 179.962 112.454C179.488 112.409 178.974 112.357 178.436 112.306C178.166 112.277 177.894 112.25 177.614 112.22C177.335 112.193 177.052 112.18 176.765 112.161C176.195 112.121 175.617 112.086 175.049 112.056C174.479 112.046 173.918 112.044 173.384 112.05C173.115 112.054 172.855 112.06 172.605 112.069C172.352 112.084 172.106 112.107 171.876 112.13C171.407 112.178 170.985 112.237 170.621 112.313C170.439 112.349 170.274 112.391 170.124 112.437C169.974 112.485 169.839 112.542 169.727 112.599C169.421 112.103 168.896 111.743 168.213 111.485C168.043 111.422 167.861 111.363 167.671 111.316C167.482 111.274 167.281 111.234 167.075 111.203C166.66 111.14 166.214 111.1 165.745 111.079C165.276 111.051 164.781 111.081 164.275 111.112C163.767 111.146 163.244 111.186 162.715 111.258C162.184 111.339 161.648 111.43 161.109 111.527C160.841 111.579 160.573 111.621 160.307 111.684C160.042 111.747 159.776 111.812 159.512 111.873C158.985 112 158.465 112.121 157.959 112.252C157.456 112.397 156.965 112.534 156.496 112.662C156.26 112.723 156.029 112.784 155.804 112.843C155.581 112.906 155.361 112.967 155.151 113.028C154.726 113.145 154.326 113.244 153.955 113.32C153.769 113.356 153.591 113.389 153.42 113.414C153.252 113.444 153.092 113.471 152.938 113.486C152.633 113.52 152.361 113.524 152.128 113.488C151.661 113.417 151.348 113.192 151.239 112.765C151.239 112.765 151.097 112.807 150.851 112.88C150.604 112.952 150.257 113.08 149.838 113.223C149.42 113.368 148.934 113.536 148.411 113.719C147.899 113.925 147.352 114.146 146.802 114.367C146.53 114.48 146.255 114.585 145.99 114.703C145.726 114.825 145.467 114.947 145.216 115.063C144.715 115.298 144.246 115.517 143.845 115.704C143.063 116.12 142.541 116.397 142.541 116.397L142.603 115.962C142.256 116.12 141.928 116.276 141.611 116.431C141.532 116.469 141.454 116.507 141.379 116.547C141.304 116.589 141.229 116.629 141.155 116.671C141.009 116.755 140.865 116.837 140.726 116.917C140.167 117.242 139.663 117.554 139.205 117.854C138.759 118.172 138.359 118.474 137.999 118.767C137.648 119.071 137.333 119.361 137.054 119.639C135.944 120.776 135.355 121.756 134.815 122.748C133.609 123.425 134.173 122.54 134.151 122.321C132.351 123.574 131.036 124.668 129.986 125.643C129.725 125.889 129.479 126.126 129.247 126.356C129.02 126.593 128.804 126.822 128.6 127.047C128.497 127.161 128.397 127.274 128.298 127.382C128.204 127.497 128.112 127.609 128.02 127.72C127.837 127.945 127.662 128.168 127.495 128.391C127.161 128.843 126.861 129.305 126.565 129.791C126.423 130.037 126.28 130.289 126.139 130.55C125.997 130.812 125.856 131.083 125.721 131.369C125.582 131.655 125.444 131.954 125.301 132.265C125.164 132.58 125.025 132.912 124.881 133.259C124.735 133.604 124.594 133.974 124.45 134.363C124.376 134.558 124.301 134.758 124.225 134.96C124.148 135.166 124.076 135.38 124.001 135.597C124.001 135.597 123.664 135.597 123.328 135.597C122.989 135.601 122.649 135.603 122.649 135.603C122.527 136.112 121.961 136.965 121.17 138.12C120.386 139.284 119.377 140.752 118.379 142.477C117.379 144.197 116.389 146.173 115.611 148.271C114.836 150.371 114.272 152.593 114.073 154.746C113.97 154.633 113.799 154.406 113.818 153.705C113.779 154.006 113.741 154.315 113.696 154.62C113.648 154.925 113.601 155.234 113.55 155.547C113.454 156.169 113.338 156.794 113.207 157.426C113.062 158.055 112.95 158.694 112.807 159.337C112.736 159.659 112.665 159.979 112.59 160.304L112.474 160.786C112.436 160.948 112.406 161.11 112.37 161.273C112.233 161.921 112.087 162.571 111.935 163.22C111.9 163.384 111.858 163.546 111.823 163.708L111.725 164.195C111.658 164.519 111.592 164.841 111.523 165.163C111.236 166.455 111.026 167.731 110.816 168.965C110.713 169.583 110.647 170.189 110.576 170.782C110.544 171.078 110.512 171.372 110.482 171.661C110.469 171.806 110.454 171.948 110.441 172.093C110.431 172.234 110.424 172.375 110.414 172.516C110.386 173.077 110.369 173.618 110.371 174.139C110.371 174.4 110.375 174.654 110.384 174.904C110.397 175.152 110.42 175.394 110.444 175.629C110.548 176.573 110.714 177.416 111.011 178.118C111.311 178.821 111.71 179.39 112.241 179.796C112.241 179.796 112.26 179.891 112.293 180.057C112.331 180.225 112.372 180.463 112.44 180.75C112.569 181.318 112.745 182.079 112.92 182.836C113.004 183.216 113.1 183.591 113.192 183.942C113.284 184.295 113.366 184.623 113.439 184.904C113.584 185.464 113.681 185.838 113.681 185.838C113.634 184.85 113.629 184.127 113.657 183.612C113.681 183.096 113.758 182.783 113.843 182.623C114.015 182.298 114.266 182.575 114.538 182.989C115.092 183.818 115.759 185.184 115.958 183.574C116.087 184.324 116.108 185.194 116.082 186.021C116.065 186.849 115.98 187.635 115.862 188.215C115.737 188.794 115.6 189.164 115.429 189.161C115.264 189.157 115.071 188.775 114.919 187.843L115.058 187.232C114.488 186.948 114.223 187.414 114.124 188.279C114.069 188.714 114.075 189.245 114.105 189.83C114.133 190.414 114.184 191.053 114.248 191.699C114.52 194.282 114.996 196.977 114.259 197.013C114.445 197.965 114.63 198.916 114.814 199.866C115.011 200.812 115.208 201.758 115.403 202.7C115.502 203.171 115.589 203.644 115.695 204.114C115.799 204.583 115.904 205.05 116.009 205.519C116.112 205.986 116.215 206.456 116.316 206.923C116.419 207.39 116.519 207.859 116.633 208.325C116.854 209.256 117.076 210.184 117.293 211.111C117.398 211.575 117.518 212.036 117.638 212.496C117.756 212.956 117.875 213.417 117.993 213.877C118.109 214.338 118.225 214.798 118.343 215.256C118.456 215.717 118.593 216.171 118.717 216.627C118.968 217.539 119.219 218.45 119.471 219.358C119.741 220.262 120.011 221.163 120.279 222.065C120.416 222.513 120.545 222.965 120.688 223.411C120.832 223.856 120.975 224.302 121.119 224.746C121.412 225.635 121.691 226.528 121.995 227.407C122.304 228.284 122.614 229.16 122.923 230.035C123.225 230.913 123.568 231.769 123.898 232.631C124.065 233.06 124.23 233.491 124.397 233.92L124.648 234.561L124.911 235.198C125.269 236.043 125.622 236.888 125.976 237.729C126.152 238.151 126.34 238.566 126.529 238.98C126.719 239.394 126.906 239.806 127.098 240.218L127.897 237.987C127.897 237.987 128.407 239.135 128.919 240.283C129.046 240.569 129.174 240.857 129.292 241.126C129.417 241.393 129.534 241.641 129.633 241.854C129.834 242.282 129.967 242.566 129.967 242.566C130.205 243.922 129.584 244.759 128.06 241.486C128.045 242.553 128.902 243.823 129.789 244.809C130.23 245.305 130.704 245.719 131.075 246.008C131.45 246.296 131.734 246.459 131.825 246.44C132.154 247.258 132.354 247.847 132.456 248.259C132.555 248.669 132.566 248.896 132.495 248.995C132.358 249.192 131.919 248.867 131.447 248.385C130.49 247.427 129.316 245.875 129.8 246.848C129.8 246.848 130.168 247.489 130.533 248.127C130.715 248.448 130.899 248.766 131.036 249.007C131.173 249.247 131.268 249.403 131.268 249.403C131.268 249.403 131.231 249.236 131.199 249.064C131.165 248.892 131.132 248.723 131.132 248.723C131.985 249.615 132.611 250.006 133.254 250.664C133.579 250.992 133.911 251.383 134.284 251.932C134.665 252.478 135.098 253.174 135.612 254.12C136.139 255.39 136.092 255.827 135.976 256.065C135.857 256.306 135.662 256.348 135.908 256.828C135.803 256.884 135.94 257.227 136.709 258.274C136.709 258.274 136.902 258.621 137.197 259.142C137.483 259.663 137.896 260.343 138.294 261.028C138.697 261.715 139.098 262.4 139.4 262.913C139.709 263.422 139.916 263.761 139.916 263.761C139.916 263.761 139.901 263.582 139.876 263.315C139.852 263.046 139.816 262.691 139.79 262.331C139.736 261.614 139.681 260.897 139.681 260.897C140.19 261.4 140.623 261.978 141.013 262.489C141.397 263.002 141.716 263.466 141.962 263.765C142.453 264.366 142.641 264.301 142.483 262.668C142.643 265.106 145.718 270.143 149.043 274.734C149.45 275.312 149.874 275.874 150.292 276.431C150.709 276.984 151.121 277.53 151.519 278.06C151.916 278.594 152.318 279.098 152.696 279.586C153.077 280.076 153.439 280.543 153.78 280.986C154.456 281.876 155.067 282.641 155.526 283.28C155.988 283.915 156.308 284.409 156.442 284.722C159.637 287.139 162.07 290.087 165.124 293.732C164.834 293.198 164.854 292.542 165.261 292.426C165.466 292.366 165.764 292.445 166.177 292.729C166.589 293.013 167.112 293.509 167.759 294.3C166.139 294.785 167.127 296.425 168.654 298.397C169.037 298.891 169.442 299.412 169.85 299.94C170.263 300.465 170.674 301.001 171.049 301.537C171.422 302.072 171.758 302.61 172.024 303.139C172.294 303.663 172.495 304.174 172.59 304.668C172.33 303.877 172.727 303.989 173.438 304.525C174.149 305.063 175.173 306.026 176.193 306.919C177.209 307.813 178.198 308.662 178.832 308.965C179.46 309.274 179.709 309.068 179.235 307.888C181.517 310.432 178.592 308.868 179.962 311.195C180.797 311.794 181.616 312.444 182.427 313.137C182.834 313.484 183.231 313.844 183.636 314.206C184.045 314.565 184.454 314.935 184.861 315.313C185.673 316.066 186.483 316.854 187.293 317.668C187.698 318.076 188.105 318.488 188.514 318.904C188.717 319.116 188.923 319.326 189.127 319.535C189.336 319.741 189.544 319.951 189.752 320.159C191.428 321.826 193.131 323.558 194.913 325.259C196.719 326.928 198.598 328.574 200.58 330.115C200.953 329.896 200.053 328.341 202.077 329.243L204.931 334.168C205.76 334.715 206.473 334.54 207.219 334.65C207.971 334.757 208.759 335.139 209.755 336.811C209.559 336.228 209.273 335.35 210.392 336.062C211.279 336.914 212.183 337.752 213.1 338.578C213.558 338.993 214.025 339.396 214.497 339.794C214.966 340.193 215.443 340.588 215.919 340.981C217.83 342.55 219.773 344.095 221.781 345.556C225.774 348.52 229.917 351.318 234.052 354.127C242.33 359.744 250.606 365.376 257.839 372.403C256.035 370.257 257.56 371.188 259.281 372.286C258.274 371.396 259.846 371.459 259.924 370.852L266.002 376.69C268.077 376.229 273.461 381.458 274.961 380.694L272.634 379.486C274.549 379.71 274.042 378.235 273.256 376.507C272.474 374.777 271.415 372.794 272.219 372C270.072 371.76 268.313 369.744 266.252 367.638C265.22 366.586 264.11 365.514 262.831 364.633C261.556 363.748 260.116 363.05 258.411 362.756C257.485 361.596 259.793 362.823 259.446 361.976C257.593 361.873 255.855 360.965 253.102 358.581L253.567 358.613C245.049 353.117 241.971 349.886 233.107 342.758L233.167 344.143C231.269 342.598 231.04 342.024 230.282 341.12C229.48 341.044 229.42 341.263 229.733 341.637C229.89 341.824 230.14 342.049 230.438 342.295C230.736 342.539 231.085 342.798 231.432 343.063C232.825 344.118 234.232 345.211 232.673 345.213C232.334 344.28 231.282 343.199 229.915 342.012C228.549 340.826 226.852 339.556 225.187 338.299C224.351 337.677 223.54 337.033 222.777 336.413C222.016 335.791 221.307 335.184 220.697 334.607C219.48 333.449 218.653 332.411 218.608 331.563C215.671 329.243 218.715 333.252 215.776 330.929L215.405 329.772L214.128 329.888C213.205 329.068 212.626 328.305 212.322 327.672C212.02 327.035 211.982 326.541 212.123 326.285C212.333 326.501 212.684 326.735 213.05 326.96C213.417 327.184 213.803 327.393 214.068 327.571C213.818 327.245 213.513 326.922 213.183 326.59C212.851 326.26 212.487 325.932 212.102 325.608C211.332 324.963 210.482 324.34 209.674 323.77C208.86 323.205 208.099 322.68 207.483 322.255C206.878 321.822 206.439 321.467 206.27 321.242C206.27 321.242 206.426 321.406 206.656 321.654C206.889 321.902 207.198 322.234 207.515 322.555C208.145 323.203 208.777 323.852 208.777 323.852C204.625 320.878 200.357 317.149 196.137 313.444L195.342 312.753C195.078 312.524 194.823 312.284 194.562 312.053C194.039 311.588 193.519 311.122 193.002 310.661C191.961 309.742 190.92 308.839 189.881 307.966C189.356 307.537 188.859 307.087 188.349 306.659C187.843 306.228 187.334 305.805 186.828 305.393C185.815 304.571 184.805 303.789 183.796 303.059L183.983 303.951C183.604 303.667 183.254 303.402 182.935 303.148C182.618 302.891 182.333 302.65 182.068 302.422C181.54 301.964 181.106 301.561 180.735 301.189C179.991 300.449 179.516 299.822 179.027 299.177C178.053 297.884 177.059 296.488 174.091 293.608L174.381 293.743C173.639 293.311 172.84 292.735 172.048 292.046C171.263 291.35 170.479 290.549 169.744 289.685C170.664 290.259 170.214 289.334 169.847 288.451C169.477 287.57 169.172 286.75 170.312 287.556C168.789 286.193 167.819 285.353 167.167 284.804C166.509 284.261 166.143 284.024 165.813 283.873C165.483 283.721 165.186 283.654 164.663 283.444C164.146 283.229 163.409 282.868 162.186 282.126L162.045 280.612C161.175 280.137 160.639 279.931 159.975 279.454C159.643 279.218 159.279 278.911 158.825 278.47C158.373 278.028 157.844 277.438 157.165 276.649C158.491 277.776 158.338 277.043 158.244 276.342C158.148 275.636 158.111 274.961 159.641 276.162C159.165 275.157 158.658 274.268 158.15 273.462C157.647 272.649 157.132 271.926 156.616 271.27C156.096 270.616 155.592 270.019 155.099 269.468C154.604 268.917 154.124 268.411 153.668 267.931C152.764 266.966 151.982 266.088 151.41 265.159C151.121 264.696 150.9 264.211 150.75 263.693C150.598 263.176 150.517 262.625 150.523 262.02C148.452 261.034 149.219 262.771 150.309 264.576C151.414 266.365 152.852 268.184 152.01 267.416C152.231 268.411 151.408 267.994 150.352 267.019C149.287 266.054 148.036 264.498 147.37 263.29C146.99 262.705 146.804 262.049 146.669 261.312C146.534 260.58 146.453 259.764 146.301 258.842C146.018 256.989 145.45 254.723 143.678 251.746C144.021 252.344 144.195 252.291 144.539 252.89C144.336 252.253 144.03 251.69 143.672 251.15C143.321 250.605 142.924 250.082 142.524 249.537C142.127 248.993 141.726 248.427 141.386 247.79C141.054 247.149 140.777 246.44 140.61 245.623C140.088 245.406 139.708 245.064 139.402 244.687C139.106 244.301 138.882 243.878 138.669 243.497C138.241 242.732 137.844 242.133 136.925 242.324C136.925 242.324 137.753 243.695 138.581 245.068C139.432 246.422 140.287 247.777 140.287 247.777C139.753 247.04 139.134 246.363 138.476 245.671C137.817 244.979 137.146 244.256 136.465 243.451C136.128 243.045 135.784 242.623 135.464 242.16C135.143 241.696 134.83 241.2 134.533 240.664C134.235 240.128 133.948 239.551 133.686 238.925C133.435 238.294 133.204 237.615 132.999 236.877C133.53 237.142 134.702 238.555 135.496 239.524C135.421 239.072 135.271 238.666 135.083 238.284C134.903 237.899 134.684 237.536 134.466 237.17C134.029 236.438 133.586 235.698 133.451 234.758C133.913 234.683 134.374 235.072 134.847 235.744C135.083 236.079 135.323 236.486 135.567 236.941C135.812 237.395 136.06 237.899 136.336 238.419C136.606 238.942 136.887 239.486 137.172 240.039C137.465 240.586 137.753 241.143 138.082 241.664C138.727 242.711 139.415 243.676 140.163 244.363C140.07 243.354 138.942 241.898 138.172 240.781C137.418 239.653 137.005 238.885 138.305 239.304C137.444 238.967 136.84 238.404 136.362 237.699C135.901 236.987 135.565 236.135 135.222 235.221C134.869 234.311 134.545 233.327 134.068 232.36C133.83 231.874 133.555 231.393 133.226 230.922C132.902 230.449 132.534 229.982 132.088 229.534L133.2 229.387C132.981 229.078 132.604 228.622 132.219 228.084C132.028 227.813 131.833 227.525 131.659 227.22C131.488 226.915 131.336 226.598 131.218 226.276C131.218 226.276 131.767 226.715 132.319 227.151C132.879 227.582 133.438 228.012 133.438 228.012C133.119 227.636 132.849 227.243 132.622 226.835C132.401 226.425 132.221 226.001 132.069 225.57C131.767 224.706 131.563 223.812 131.403 222.912C131.248 222.009 131.109 221.109 130.895 220.238C130.843 220.02 130.783 219.805 130.719 219.591C130.657 219.375 130.593 219.164 130.516 218.952C130.37 218.531 130.19 218.119 129.969 217.72C130.28 218.609 130.494 219.311 130.657 219.856C130.82 220.402 130.91 220.798 130.946 221.086C131.015 221.66 130.865 221.8 130.644 221.821C130.201 221.863 129.47 221.416 129.659 223.072C129.086 222.032 128.664 221.155 128.362 220.4C128.077 219.639 127.906 219 127.814 218.441C127.632 217.323 127.758 216.528 127.928 215.687C128.093 214.846 128.277 213.97 128.195 212.696C128.155 212.059 128.071 211.317 127.878 210.43C127.782 209.988 127.66 209.509 127.51 208.987C127.36 208.464 127.203 207.894 127.002 207.278C127.13 207.606 127.24 208.1 127.315 208.626C127.396 209.149 127.458 209.702 127.463 210.154C127.473 211.06 127.281 211.561 126.73 210.572C126.644 210.078 126.558 209.544 126.481 208.998C126.417 208.449 126.361 207.892 126.323 207.354C126.286 206.816 126.263 206.301 126.265 205.838C126.267 205.607 126.274 205.388 126.287 205.187C126.308 204.985 126.332 204.798 126.366 204.634C125.451 201.323 125.239 201.64 125.095 202.458C124.95 203.272 124.872 204.598 124.202 203.242C124.384 202.588 124.386 202.067 124.288 201.6C124.193 201.134 123.981 200.724 123.711 200.305C123.441 199.887 123.112 199.458 122.784 198.949C122.452 198.443 122.141 197.856 121.893 197.125L122.966 196.887C122.58 192.95 121.974 192.535 121.355 192.201C121.048 192.035 120.751 191.892 120.513 191.339C120.268 190.788 120.119 189.817 120.093 188.018C120.093 188.018 120.569 188.714 121.046 189.409C121.286 189.754 121.524 190.097 121.7 190.356C121.882 190.612 122.006 190.782 122.006 190.782C122.006 190.782 121.991 190.726 121.965 190.627C121.937 190.53 121.901 190.391 121.862 190.221C121.779 189.885 121.67 189.435 121.56 188.987C121.453 188.537 121.337 188.085 121.262 187.747C121.186 187.41 121.136 187.183 121.136 187.183L122.46 187.782C122.12 186.824 121.871 186.025 121.687 185.304C121.518 184.583 121.419 183.939 121.355 183.296C121.286 182.651 121.29 182.006 121.299 181.282C121.308 180.917 121.318 180.536 121.325 180.122C121.348 179.708 121.372 179.266 121.4 178.781C121.031 179.245 120.528 179.142 120.097 178.482C119.654 177.822 119.33 176.599 119.304 174.856C119.651 173.672 119.906 174.011 120.065 174.025C120.146 174.032 120.2 173.96 120.232 173.58C120.266 173.203 120.26 172.516 120.288 171.297C120.607 171.866 120.954 172.449 121.126 173.151C121.207 173.502 121.235 173.882 121.175 174.307C121.147 174.519 121.095 174.742 121.02 174.978C120.946 175.215 120.856 175.465 120.731 175.728C121.093 175.945 121.432 176.802 121.787 177.015C121.969 176.39 122.064 175.688 122.111 174.961C122.175 174.236 122.186 173.483 122.173 172.752C122.167 172.024 122.162 171.32 122.145 170.687C122.122 170.054 122.137 169.499 122.167 169.07C122.122 169.398 122.064 169.758 122.004 170.086C121.95 170.416 121.882 170.712 121.794 170.912C121.794 170.912 121.775 170.801 121.742 170.611C121.712 170.42 121.657 170.143 121.612 169.815C121.524 169.153 121.402 168.272 121.282 167.389C121.19 166.502 121.098 165.612 121.031 164.944C120.982 164.277 120.95 163.83 120.95 163.83C121.518 162.8 121.719 163.722 121.916 164.61C121.959 163.91 121.89 163.302 121.837 162.604C121.798 161.913 121.796 161.139 121.933 160.109C122.323 160.464 122.749 160.653 123.066 161.116C123.225 161.347 123.356 161.645 123.441 162.066C123.486 162.276 123.512 162.514 123.534 162.791C123.561 163.071 123.576 163.388 123.576 163.748C123.576 163.748 123.574 163.34 123.568 162.726C123.585 162.116 123.609 161.301 123.632 160.487C123.671 159.672 123.735 158.86 123.773 158.246C123.789 157.939 123.808 157.681 123.829 157.508C123.846 157.33 123.853 157.229 123.853 157.229C123.973 157.149 124.148 156.928 124.345 156.655C124.542 156.384 124.774 156.068 124.982 155.784C125.412 155.223 125.796 154.826 125.837 155.263C126.578 153.68 126.841 151.538 127.345 149.263C127.463 148.692 127.615 148.124 127.767 147.546C127.936 146.978 128.11 146.404 128.33 145.849C128.54 145.29 128.795 144.752 129.072 144.229C129.365 143.716 129.674 143.215 130.042 142.763C130.027 142.614 130.046 142.414 130.115 142.135C130.185 141.857 130.318 141.506 130.522 141.046C131.145 140.15 131.814 139.324 132.517 138.544C133.213 137.756 133.941 137.012 134.661 136.242C135.383 135.473 136.114 134.693 136.833 133.827C137.562 132.971 138.28 132.036 139.016 130.962C139.016 130.962 139.216 130.924 139.514 130.865C139.815 130.81 140.203 130.728 140.602 130.671C141 130.61 141.388 130.547 141.682 130.508C141.975 130.476 142.172 130.451 142.172 130.451C142.343 130.291 142.478 130.15 142.581 130.03C142.686 129.915 142.759 129.818 142.802 129.734C142.892 129.568 142.869 129.463 142.779 129.395C142.598 129.259 142.127 129.265 141.72 129.24C141.313 129.215 140.957 129.137 141.009 128.784C141.037 128.611 141.159 128.353 141.446 128.021C141.589 127.854 141.769 127.663 141.992 127.443C142.217 127.226 142.493 126.995 142.815 126.726C143.269 126.345 143.657 126.08 143.972 125.878C144.299 125.696 144.555 125.586 144.76 125.532C145.171 125.426 145.373 125.542 145.51 125.733C145.778 126.116 145.797 126.785 146.581 126.591C146.978 126.152 147.459 125.63 148.023 125.056C148.314 124.783 148.631 124.514 148.968 124.235C149.308 123.965 149.666 123.675 150.063 123.438C150.459 123.194 150.877 122.96 151.316 122.738C151.759 122.528 152.233 122.364 152.721 122.212C152.965 122.139 153.212 122.061 153.467 122.014C153.724 121.968 153.985 121.928 154.251 121.897C154.78 121.844 155.318 121.798 155.879 121.861C155.716 121.935 155.553 122 155.395 122.057C155.239 122.124 155.084 122.183 154.932 122.237C154.628 122.342 154.328 122.424 154.032 122.502C153.882 122.538 153.734 122.576 153.585 122.612C153.435 122.651 153.291 122.7 153.143 122.748C152.82 122.853 152.524 122.956 152.22 123.085ZM200.059 131.533C199.584 131.346 198.825 131.145 198.167 130.861C198.002 130.793 197.844 130.713 197.692 130.638C197.54 130.562 197.401 130.482 197.276 130.394C197.028 130.217 196.846 130.014 196.773 129.778C197.178 129.652 197.51 129.62 197.801 129.66C198.092 129.7 198.343 129.814 198.572 129.992C199.035 130.348 199.453 130.903 200.059 131.533ZM250.114 201.621C250.09 201.688 250.066 201.749 250.041 201.804L250.021 201.844C250.015 201.857 250.006 201.838 250 201.834C249.985 201.823 249.97 201.808 249.955 201.792C249.893 201.728 249.827 201.636 249.76 201.52C249.625 201.289 249.477 200.959 249.321 200.557C249.012 199.75 248.674 198.647 248.35 197.429C248.622 197.915 248.899 198.497 249.192 199.225C249.338 199.588 249.488 199.988 249.644 200.431C249.72 200.654 249.799 200.885 249.88 201.131C249.921 201.256 249.961 201.38 250.002 201.506L250.017 201.554C250.021 201.573 250.026 201.564 250.03 201.569L250.058 201.585L250.114 201.621ZM371.258 247.555C371.263 247.506 371.269 247.469 371.267 247.426C372.801 245.408 372.24 246.115 371.258 247.555ZM368.368 251.864C368.246 252.392 368.39 252.438 368.636 252.327C368.574 251.873 369.114 250.845 369.823 249.73C369.393 249.909 368.9 250.391 368.368 251.864ZM136.516 257.111L136.257 256.104C137.671 257.87 137.106 257.479 136.516 257.111Z" fill="#D60A0A"></path>
  </g>
  <path d="M244.331 192.817C244.233 192.159 244.286 191.78 244.346 191.416C244.01 191.131 243.883 191.364 244.331 192.817Z" fill="#D60A0A"></path>
  <path d="M130.102 142.639C130.068 142.679 130.048 142.725 130.016 142.765C130.031 142.872 130.064 142.943 130.109 142.998L130.102 142.639Z" fill="#D60A0A"></path>
  <path d="M370.343 176.686C370.234 176.219 370.179 175.839 370.148 175.528C370.114 175.219 370.116 174.975 370.136 174.769C370.003 174.803 369.93 174.943 369.958 175.242C369.968 175.393 370.013 175.578 370.073 175.82C370.133 176.058 370.221 176.345 370.343 176.686Z" fill="#D60A0A"></path>
  <path d="M355.186 275.644L356.829 272.818C355.966 274.136 355.448 274.452 354.85 274.996C355.1 275.091 355.758 274.805 355.186 275.644Z" fill="#D60A0A"></path>
  <path d="M333.236 293.996C333.062 294.454 332.653 294.797 332.484 295.251L332.966 295.465C334.138 293.849 334.647 292.482 333.236 293.996Z" fill="#D60A0A"></path>
  <path d="M350.495 275.89C349.602 275.545 348.674 277.365 347.493 279.291C347.57 279.178 347.637 279.07 347.725 278.967C348.376 280.288 349.443 278.089 350.495 275.89Z" fill="#D60A0A"></path>
  <path d="M347.21 279.73C346.835 280.315 346.437 280.901 346 281.421C346.261 281.948 346.587 280.807 347.21 279.73Z" fill="#D60A0A"></path>
  <path d="M365.571 257.806C364.803 258.613 366.215 259.032 365.573 259.36C365.75 260.203 366.406 258.443 366.682 257.161C366.959 255.883 366.864 255.082 365.571 257.806Z" fill="#D60A0A"></path>
  <path d="M346.977 275.536L348.367 275.57L348.359 273.995L346.977 275.536Z" fill="#D60A0A"></path>
  <path d="M357.777 261.454C357.777 261.454 357.219 262.162 356.66 262.868C356.091 263.567 355.525 264.267 355.525 264.267C355.713 264.332 355.549 264.775 355.306 265.292C355.94 264.382 356.647 263.459 357.147 262.742C357.642 262.021 357.942 261.513 357.777 261.454Z" fill="#D60A0A"></path>
  <path d="M355.306 265.292C354.646 266.24 354.032 267.148 353.822 267.788C354.165 267.266 354.906 266.144 355.306 265.292Z" fill="#D60A0A"></path>
  <path d="M349.558 271.349L350.36 270.624L351.887 268.607L349.558 271.349Z" fill="#D60A0A"></path>
  <path d="M375.507 226.973C375.507 226.973 375.569 226.731 375.659 226.368C375.755 226.008 375.863 225.52 375.968 225.033C376.192 224.062 376.379 223.084 376.379 223.084C376.248 222.834 376.047 222.952 375.852 223.313C375.661 223.675 375.453 224.274 375.31 224.999C375.305 225.245 375.286 225.521 375.261 225.789C375.231 226.054 375.205 226.311 375.196 226.525C375.175 226.95 375.231 227.2 375.507 226.973Z" fill="#D60A0A"></path>
  <path d="M368.289 236.797C368.936 235.947 369.199 235.99 369.786 235.605L368.538 234.915C368.538 234.915 368.527 235.033 368.503 235.21C368.48 235.386 368.448 235.62 368.417 235.855C368.353 236.326 368.289 236.797 368.289 236.797Z" fill="#D60A0A"></path>
  <path d="M372.104 226.24C371.976 225.993 372.173 224.591 372.16 223.826C372.162 223.444 372.13 223.223 372.015 223.385C371.957 223.465 371.879 223.641 371.774 223.942C371.721 224.093 371.661 224.274 371.595 224.49C371.522 224.705 371.438 224.953 371.348 225.239C371.47 225.483 371.301 226.536 371.278 227.129C371.258 227.721 371.382 227.856 372.104 226.24Z" fill="#D60A0A"></path>
  <path d="M371.353 169.757L371.837 170.615L373.814 169.379C373.814 169.379 373.197 169.469 372.58 169.559C371.966 169.658 371.353 169.757 371.353 169.757Z" fill="#D60A0A"></path>
  <path d="M329.51 147.869C330.012 148.024 330.406 148.108 330.719 148.169C331.031 148.23 331.263 148.245 331.441 148.232C331.798 148.203 331.942 148.05 332.073 147.898C332.328 147.602 332.557 147.278 334.328 148.071C334.873 147.913 334.149 147.595 333.418 147.284C333.052 147.122 332.681 146.988 332.473 146.866C332.265 146.746 332.216 146.643 332.492 146.574C331.83 146.595 331.258 146.568 330.785 146.557C330.309 146.559 329.93 146.563 329.665 146.612C329.131 146.715 329.056 147.011 329.51 147.869Z" fill="#D60A0A"></path>
  <path d="M332.49 146.574C332.702 146.568 332.921 146.559 333.15 146.545C333.377 146.538 333.611 146.526 333.855 146.505C333.094 146.465 332.724 146.523 332.49 146.574Z" fill="#D60A0A"></path>
  <path d="M269.946 380.746L272.167 382.783L270.987 381.068L269.946 380.746Z" fill="#D60A0A"></path>
  <path d="M275.64 382.386L275.424 384.034L277.637 383.862C277.041 383.553 275.886 382.951 275.64 382.386Z" fill="#D60A0A"></path>
  <path d="M204.207 138.52L204.59 138.375C204.56 138.093 204.43 137.845 204.194 137.559C204.076 137.416 203.933 137.261 203.761 137.091C203.583 136.927 203.378 136.746 203.142 136.536C203.142 136.536 203.213 136.66 203.316 136.845C203.418 137.032 203.562 137.267 203.69 137.522C203.947 138.022 204.207 138.52 204.207 138.52Z" fill="#D60A0A"></path>
  <path d="M172.538 122.626L173.14 122.739C173.14 122.739 172.902 122.363 172.663 121.989C172.42 121.612 172.176 121.236 172.176 121.236C172.176 121.236 172.268 121.585 172.36 121.932C172.448 122.281 172.538 122.626 172.538 122.626Z" fill="#D60A0A"></path>
  <path d="M145.639 129.367C145.876 129.224 146.125 129.079 146.369 128.915C146.615 128.753 146.858 128.575 147.104 128.396C147.228 128.308 147.35 128.215 147.475 128.131C147.603 128.053 147.73 127.972 147.86 127.898C148.115 127.747 148.37 127.608 148.623 127.494C148.368 127.66 148.113 127.787 147.864 127.89C147.614 127.993 147.367 128.066 147.143 128.144C146.69 128.289 146.277 128.363 145.956 128.434C145.797 128.47 145.66 128.507 145.555 128.548C145.45 128.59 145.381 128.648 145.345 128.714C145.276 128.852 145.358 129.046 145.639 129.367Z" fill="#D60A0A"></path>
</svg>
