<svg xmlns="http://www.w3.org/2000/svg" xmlns:xlink="http://www.w3.org/1999/xlink" width="500" zoomAndPan="magnify" viewBox="0 0 375 112.499997" height="150" preserveAspectRatio="xMidYMid meet" version="1.0"><defs><g/><clipPath id="e40cc3fbba"><path d="M 188 45 L 226 45 L 226 81.640625 L 188 81.640625 Z M 188 45 " clip-rule="nonzero"/></clipPath><clipPath id="8ce3d5886a"><path d="M 205 45 L 241.769531 45 L 241.769531 81.640625 L 205 81.640625 Z M 205 45 " clip-rule="nonzero"/></clipPath><clipPath id="9bd39158ab"><path d="M 214 33.851562 L 233 33.851562 L 233 50 L 214 50 Z M 214 33.851562 " clip-rule="nonzero"/></clipPath><clipPath id="fe79e59b97"><path d="M 183.597656 47 L 193 47 L 193 50 L 183.597656 50 Z M 183.597656 47 " clip-rule="nonzero"/></clipPath></defs><g fill="#ffffff" fill-opacity="1"><g transform="translate(0.829651, 68.317842)"><g><path d="M 3.125 0.546875 C 5.445312 -6.867188 7.941406 -15.1875 10.609375 -24.40625 C 10.796875 -25.144531 10.890625 -25.65625 10.890625 -25.9375 C 10.890625 -26.15625 10.851562 -26.300781 10.78125 -26.375 C 10.71875 -26.457031 10.582031 -26.5 10.375 -26.5 C 9.664062 -26.5 8.976562 -26.132812 8.3125 -25.40625 C 7.65625 -24.675781 7.117188 -23.800781 6.703125 -22.78125 C 6.296875 -21.769531 6.09375 -20.867188 6.09375 -20.078125 C 6.09375 -19.441406 6.226562 -18.820312 6.5 -18.21875 C 5.382812 -18.21875 4.578125 -18.445312 4.078125 -18.90625 C 3.578125 -19.375 3.328125 -20.003906 3.328125 -20.796875 C 3.328125 -21.929688 3.785156 -23.101562 4.703125 -24.3125 C 5.628906 -25.53125 6.742188 -26.535156 8.046875 -27.328125 C 9.359375 -28.117188 10.519531 -28.515625 11.53125 -28.515625 C 12.664062 -28.515625 13.578125 -27.972656 14.265625 -26.890625 C 14.953125 -25.804688 15.472656 -24.445312 15.828125 -22.8125 C 16.179688 -21.175781 16.570312 -18.945312 17 -16.125 C 17.46875 -12.769531 17.820312 -10.332031 18.0625 -8.8125 C 18.300781 -7.289062 18.550781 -5.859375 18.8125 -4.515625 L 20.3125 -10.8125 C 21.34375 -15.269531 22.1875 -18.71875 22.84375 -21.15625 C 23.507812 -23.601562 24.160156 -25.367188 24.796875 -26.453125 C 25.585938 -27.859375 26.65625 -28.5625 28 -28.5625 C 27.050781 -26.101562 25.957031 -22.691406 24.71875 -18.328125 C 23.476562 -13.972656 22.421875 -9.742188 21.546875 -5.640625 C 20.671875 -1.535156 20.234375 1.492188 20.234375 3.453125 C 19.210938 3.453125 18.394531 3.207031 17.78125 2.71875 C 17.175781 2.226562 16.726562 1.335938 16.4375 0.046875 C 16.125 -1.304688 15.03125 -7.171875 13.15625 -17.546875 C 12.9375 -18.710938 12.757812 -19.648438 12.625 -20.359375 C 12.5 -21.066406 12.410156 -21.609375 12.359375 -21.984375 C 10.171875 -14.003906 8.570312 -8.382812 7.5625 -5.125 C 6.5625 -1.863281 5.675781 0.378906 4.90625 1.609375 C 4.144531 2.835938 3.25 3.453125 2.21875 3.453125 Z M 3.125 0.546875 "/></g></g></g><g fill="#ffffff" fill-opacity="1"><g transform="translate(27.516533, 68.317842)"><g><path d="M 2.21875 1.859375 C 1.289062 1.859375 0.519531 1.554688 -0.09375 0.953125 C -0.71875 0.347656 -1.03125 -0.507812 -1.03125 -1.625 C -1.03125 -3.15625 -0.46875 -4.867188 0.65625 -6.765625 C 1.78125 -8.671875 3.210938 -10.285156 4.953125 -11.609375 C 6.691406 -12.929688 8.429688 -13.59375 10.171875 -13.59375 C 11.335938 -13.59375 12.3125 -13.289062 13.09375 -12.6875 C 13.875 -12.09375 14.265625 -11.335938 14.265625 -10.421875 C 14.265625 -9.203125 13.507812 -8.566406 12 -8.515625 C 12.945312 -8.222656 13.421875 -7.828125 13.421875 -7.328125 C 13.421875 -7.140625 13.328125 -6.859375 13.140625 -6.484375 C 12.960938 -6.117188 12.753906 -5.738281 12.515625 -5.34375 C 12.097656 -4.65625 11.769531 -4.050781 11.53125 -3.53125 C 11.289062 -3.019531 11.171875 -2.539062 11.171875 -2.09375 C 11.171875 -1.695312 11.269531 -1.359375 11.46875 -1.078125 C 11.664062 -0.804688 11.960938 -0.671875 12.359375 -0.671875 C 13.097656 -0.671875 14.039062 -1.1875 15.1875 -2.21875 C 16.332031 -3.25 17.445312 -4.796875 18.53125 -6.859375 L 19.296875 -6.09375 C 18.316406 -3.90625 17.097656 -2.144531 15.640625 -0.8125 C 14.191406 0.519531 12.726562 1.1875 11.25 1.1875 C 10.195312 1.1875 9.382812 0.835938 8.8125 0.140625 C 8.25 -0.554688 7.96875 -1.351562 7.96875 -2.25 C 6.769531 -0.832031 5.75 0.203125 4.90625 0.859375 C 4.0625 1.523438 3.164062 1.859375 2.21875 1.859375 Z M 3.046875 -0.15625 C 3.972656 -0.15625 5.050781 -0.820312 6.28125 -2.15625 C 7.507812 -3.488281 8.898438 -5.226562 10.453125 -7.375 L 11.25 -8.4375 C 11.332031 -8.570312 11.4375 -8.640625 11.5625 -8.640625 L 11.71875 -8.59375 C 11.851562 -9.019531 11.921875 -9.507812 11.921875 -10.0625 C 11.921875 -11.4375 11.367188 -12.125 10.265625 -12.125 C 9.097656 -12.125 7.878906 -11.5 6.609375 -10.25 C 5.347656 -9.007812 4.285156 -7.53125 3.421875 -5.8125 C 2.566406 -4.101562 2.140625 -2.640625 2.140625 -1.421875 C 2.140625 -0.972656 2.210938 -0.648438 2.359375 -0.453125 C 2.503906 -0.253906 2.734375 -0.15625 3.046875 -0.15625 Z M 13.140625 -16.234375 C 12.109375 -16.234375 11.265625 -16.429688 10.609375 -16.828125 C 9.953125 -17.222656 9.46875 -17.710938 9.15625 -18.296875 C 8.851562 -18.878906 8.703125 -19.445312 8.703125 -20 C 8.703125 -20.875 9.070312 -21.519531 9.8125 -21.9375 C 9.96875 -21.039062 10.320312 -20.285156 10.875 -19.671875 C 11.4375 -19.066406 12.21875 -18.765625 13.21875 -18.765625 C 14.78125 -18.765625 15.984375 -19.414062 16.828125 -20.71875 C 17.191406 -20.425781 17.375 -19.988281 17.375 -19.40625 C 17.375 -18.507812 16.953125 -17.753906 16.109375 -17.140625 C 15.265625 -16.535156 14.273438 -16.234375 13.140625 -16.234375 Z M 13.140625 -16.234375 "/></g></g></g><g fill="#ffffff" fill-opacity="1"><g transform="translate(45.096618, 68.317842)"><g><path d="M 13.34375 0.796875 C 12.34375 0.796875 11.5625 0.539062 11 0.03125 C 10.445312 -0.46875 10.171875 -1.125 10.171875 -1.9375 C 10.171875 -2.28125 10.226562 -2.675781 10.34375 -3.125 C 10.46875 -3.570312 10.597656 -4.019531 10.734375 -4.46875 C 11.097656 -5.6875 11.28125 -6.585938 11.28125 -7.171875 C 11.28125 -7.703125 11.148438 -8.09375 10.890625 -8.34375 C 10.628906 -8.59375 10.300781 -8.71875 9.90625 -8.71875 C 8.5 -8.71875 7.082031 -7.835938 5.65625 -6.078125 C 4.238281 -4.328125 2.707031 -2.101562 1.0625 0.59375 C -0.0703125 0.59375 -0.925781 0.210938 -1.5 -0.546875 L -1.15625 -1.546875 C 0.40625 -5.316406 1.1875 -8.113281 1.1875 -9.9375 C 1.394531 -10.175781 1.695312 -10.394531 2.09375 -10.59375 C 2.488281 -10.789062 2.875 -10.890625 3.25 -10.890625 C 3.695312 -10.890625 4.039062 -10.785156 4.28125 -10.578125 C 4.519531 -10.367188 4.640625 -10.078125 4.640625 -9.703125 C 4.640625 -8.992188 4.414062 -7.816406 3.96875 -6.171875 C 5.15625 -7.765625 6.382812 -9.0625 7.65625 -10.0625 C 8.9375 -11.0625 10.203125 -11.5625 11.453125 -11.5625 C 12.503906 -11.5625 13.320312 -11.195312 13.90625 -10.46875 C 14.488281 -9.75 14.78125 -8.882812 14.78125 -7.875 C 14.78125 -7.300781 14.707031 -6.75 14.5625 -6.21875 C 14.414062 -5.6875 14.195312 -5.09375 13.90625 -4.4375 C 13.457031 -3.320312 13.234375 -2.488281 13.234375 -1.9375 C 13.234375 -1.539062 13.320312 -1.25 13.5 -1.0625 C 13.6875 -0.882812 13.914062 -0.796875 14.1875 -0.796875 C 15.050781 -0.796875 15.988281 -1.394531 17 -2.59375 C 18.019531 -3.789062 18.941406 -5.210938 19.765625 -6.859375 L 20.4375 -6.296875 C 19.488281 -4.109375 18.4375 -2.378906 17.28125 -1.109375 C 16.132812 0.160156 14.820312 0.796875 13.34375 0.796875 Z M 13.34375 0.796875 "/></g></g></g><g fill="#ffffff" fill-opacity="1"><g transform="translate(63.824946, 68.317842)"><g><path d="M 1.984375 11.09375 C 1.242188 11.09375 0.609375 10.875 0.078125 10.4375 C -0.453125 10 -0.71875 9.375 -0.71875 8.5625 C -0.71875 7.53125 -0.328125 6.585938 0.453125 5.734375 C 1.234375 4.890625 2.140625 4.171875 3.171875 3.578125 C 4.203125 2.984375 5.5625 2.289062 7.25 1.5 C 7.90625 -0.15625 8.429688 -1.804688 8.828125 -3.453125 C 6.691406 -0.753906 4.6875 0.59375 2.8125 0.59375 C 1.757812 0.59375 0.921875 0.222656 0.296875 -0.515625 C -0.328125 -1.253906 -0.640625 -2.234375 -0.640625 -3.453125 C -0.640625 -5.210938 -0.0546875 -6.882812 1.109375 -8.46875 C 2.273438 -10.0625 3.710938 -11.335938 5.421875 -12.296875 C 7.140625 -13.265625 8.78125 -13.75 10.34375 -13.75 C 11.15625 -13.75 11.78125 -13.601562 12.21875 -13.3125 C 12.65625 -13.019531 12.875 -12.660156 12.875 -12.234375 C 12.875 -11.972656 12.789062 -11.734375 12.625 -11.515625 C 12.46875 -11.304688 12.335938 -11.191406 12.234375 -11.171875 C 11.972656 -11.429688 11.707031 -11.613281 11.4375 -11.71875 C 11.175781 -11.832031 10.847656 -11.890625 10.453125 -11.890625 C 9.160156 -11.890625 7.90625 -11.40625 6.6875 -10.4375 C 5.476562 -9.46875 4.492188 -8.300781 3.734375 -6.9375 C 2.984375 -5.582031 2.609375 -4.363281 2.609375 -3.28125 C 2.609375 -2.757812 2.71875 -2.359375 2.9375 -2.078125 C 3.164062 -1.796875 3.46875 -1.65625 3.84375 -1.65625 C 4.550781 -1.65625 5.425781 -2.117188 6.46875 -3.046875 C 7.519531 -3.972656 8.554688 -5.160156 9.578125 -6.609375 C 9.867188 -8.085938 10.210938 -9.148438 10.609375 -9.796875 C 11.003906 -10.453125 11.570312 -10.78125 12.3125 -10.78125 C 12.65625 -10.78125 13.039062 -10.722656 13.46875 -10.609375 C 13.46875 -9.921875 13.175781 -8.546875 12.59375 -6.484375 C 12.007812 -4.429688 11.3125 -2.296875 10.5 -0.078125 C 11.820312 -0.628906 13.09375 -1.492188 14.3125 -2.671875 C 15.539062 -3.847656 16.421875 -5.203125 16.953125 -6.734375 L 17.671875 -6.015625 C 17.085938 -4.359375 16.046875 -2.851562 14.546875 -1.5 C 13.054688 -0.15625 11.535156 0.867188 9.984375 1.578125 C 8.765625 4.515625 7.5 6.832031 6.1875 8.53125 C 4.882812 10.238281 3.484375 11.09375 1.984375 11.09375 Z M 1.828125 9.265625 C 2.347656 9.265625 3.03125 8.773438 3.875 7.796875 C 4.726562 6.828125 5.601562 5.347656 6.5 3.359375 C 4.78125 4.210938 3.441406 5.015625 2.484375 5.765625 C 1.535156 6.515625 1.0625 7.3125 1.0625 8.15625 C 1.0625 8.5 1.132812 8.769531 1.28125 8.96875 C 1.425781 9.164062 1.609375 9.265625 1.828125 9.265625 Z M 1.828125 9.265625 "/></g></g></g><g fill="#ffffff" fill-opacity="1"><g transform="translate(79.781642, 68.317842)"><g/></g></g><g fill="#ffffff" fill-opacity="1"><g transform="translate(90.076284, 68.317842)"><g><path d="M 2.859375 3.453125 C 3.171875 1.441406 3.613281 -0.679688 4.1875 -2.921875 C 4.769531 -5.171875 5.695312 -8.238281 6.96875 -12.125 C 5.519531 -11.988281 4.660156 -11.910156 4.390625 -11.890625 C 4.390625 -12.679688 4.6875 -13.304688 5.28125 -13.765625 C 5.875 -14.222656 6.726562 -14.570312 7.84375 -14.8125 C 7.976562 -15.257812 8.148438 -15.75 8.359375 -16.28125 L 11.125 -24.40625 C 11.15625 -24.457031 11.242188 -24.6875 11.390625 -25.09375 C 11.535156 -25.5 11.609375 -25.898438 11.609375 -26.296875 C 11.609375 -26.515625 11.566406 -26.660156 11.484375 -26.734375 C 11.410156 -26.816406 11.28125 -26.859375 11.09375 -26.859375 C 10.40625 -26.859375 9.710938 -26.46875 9.015625 -25.6875 C 8.316406 -24.90625 7.726562 -23.96875 7.25 -22.875 C 6.769531 -21.78125 6.53125 -20.820312 6.53125 -20 C 6.53125 -19.582031 6.664062 -18.988281 6.9375 -18.21875 C 5.875 -18.21875 5.082031 -18.445312 4.5625 -18.90625 C 4.050781 -19.375 3.796875 -20.015625 3.796875 -20.828125 C 3.796875 -21.960938 4.25 -23.128906 5.15625 -24.328125 C 6.070312 -25.535156 7.191406 -26.535156 8.515625 -27.328125 C 9.835938 -28.117188 11.039062 -28.515625 12.125 -28.515625 C 12.914062 -28.515625 13.484375 -28.3125 13.828125 -27.90625 C 14.171875 -27.5 14.34375 -26.976562 14.34375 -26.34375 C 14.34375 -25.894531 14.234375 -25.328125 14.015625 -24.640625 L 11.125 -15.125 C 11.550781 -15.15625 12.210938 -15.171875 13.109375 -15.171875 C 15.484375 -15.171875 17.796875 -15.066406 20.046875 -14.859375 C 21.628906 -20.191406 22.921875 -24.019531 23.921875 -26.34375 C 24.179688 -26.925781 24.515625 -27.441406 24.921875 -27.890625 C 25.335938 -28.335938 25.957031 -28.5625 26.78125 -28.5625 C 26.21875 -27.050781 25.535156 -24.96875 24.734375 -22.3125 C 23.929688 -19.664062 23.222656 -17.113281 22.609375 -14.65625 L 24 -14.609375 C 24.894531 -14.554688 25.582031 -14.53125 26.0625 -14.53125 C 25.320312 -13.789062 24.644531 -13.300781 24.03125 -13.0625 C 23.425781 -12.832031 22.796875 -12.71875 22.140625 -12.71875 C 21.378906 -9.46875 20.804688 -6.640625 20.421875 -4.234375 C 20.035156 -1.835938 19.84375 0.0195312 19.84375 1.34375 C 19.84375 2.03125 19.910156 2.734375 20.046875 3.453125 C 18.691406 3.316406 17.769531 2.988281 17.28125 2.46875 C 16.800781 1.957031 16.5625 1.054688 16.5625 -0.234375 C 16.5625 -1.421875 16.765625 -2.945312 17.171875 -4.8125 C 17.578125 -6.675781 18.320312 -9.296875 19.40625 -12.671875 C 17.320312 -12.671875 15.5625 -12.648438 14.125 -12.609375 C 12.6875 -12.578125 11.398438 -12.503906 10.265625 -12.390625 C 10.203125 -12.234375 9.945312 -11.398438 9.5 -9.890625 C 9.050781 -8.390625 7.941406 -4.84375 6.171875 0.75 C 5.910156 1.625 5.441406 2.289062 4.765625 2.75 C 4.097656 3.21875 3.460938 3.453125 2.859375 3.453125 Z M 2.859375 3.453125 "/></g></g></g><g fill="#ffffff" fill-opacity="1"><g transform="translate(116.327621, 68.317842)"><g><path d="M 19.09375 -6.296875 C 18.507812 -4.867188 17.753906 -3.585938 16.828125 -2.453125 C 15.910156 -1.316406 14.914062 -0.425781 13.84375 0.21875 C 12.769531 0.863281 11.75 1.1875 10.78125 1.1875 C 9.613281 1.1875 8.863281 0.785156 8.53125 -0.015625 C 8.207031 -0.828125 8.046875 -1.90625 8.046875 -3.25 C 7.140625 -1.875 6.289062 -0.789062 5.5 0 C 4.707031 0.789062 3.878906 1.1875 3.015625 1.1875 C 2.140625 1.1875 1.410156 0.78125 0.828125 -0.03125 C 0.242188 -0.851562 -0.046875 -1.820312 -0.046875 -2.9375 C -0.046875 -3.882812 0.164062 -5.070312 0.59375 -6.5 C 1.019531 -7.925781 1.515625 -9.164062 2.078125 -10.21875 C 2.648438 -11.269531 3.144531 -11.796875 3.5625 -11.796875 C 3.75 -11.796875 4.03125 -11.695312 4.40625 -11.5 C 4.789062 -11.300781 5.128906 -11.0625 5.421875 -10.78125 C 4.867188 -9.957031 4.296875 -8.78125 3.703125 -7.25 C 3.109375 -5.71875 2.8125 -4.394531 2.8125 -3.28125 C 2.8125 -2.78125 2.882812 -2.257812 3.03125 -1.71875 C 3.175781 -1.175781 3.5 -0.90625 4 -0.90625 C 4.976562 -0.90625 6.144531 -1.992188 7.5 -4.171875 C 8.863281 -6.359375 10.035156 -8.570312 11.015625 -10.8125 C 11.410156 -10.8125 11.742188 -10.769531 12.015625 -10.6875 C 12.296875 -10.613281 12.609375 -10.5 12.953125 -10.34375 C 13.535156 -10.070312 14.035156 -9.9375 14.453125 -9.9375 C 14.796875 -9.9375 15.070312 -10.03125 15.28125 -10.21875 C 15.5 -10.40625 15.609375 -10.644531 15.609375 -10.9375 C 15.609375 -11.695312 15.101562 -12.394531 14.09375 -13.03125 C 14.570312 -13.664062 15.195312 -13.984375 15.96875 -13.984375 C 16.570312 -13.984375 17.070312 -13.734375 17.46875 -13.234375 C 17.863281 -12.734375 18.0625 -12.097656 18.0625 -11.328125 C 18.0625 -10.503906 17.800781 -9.804688 17.28125 -9.234375 C 16.769531 -8.671875 16.109375 -8.390625 15.296875 -8.390625 C 14.660156 -8.390625 13.984375 -8.628906 13.265625 -9.109375 L 12.90625 -8.28125 C 12.300781 -6.875 11.8125 -5.644531 11.4375 -4.59375 C 11.070312 -3.539062 10.890625 -2.617188 10.890625 -1.828125 C 10.890625 -0.898438 11.25 -0.4375 11.96875 -0.4375 C 12.519531 -0.4375 13.179688 -0.691406 13.953125 -1.203125 C 14.734375 -1.722656 15.535156 -2.460938 16.359375 -3.421875 C 17.179688 -4.390625 17.894531 -5.503906 18.5 -6.765625 Z M 19.09375 -6.296875 "/></g></g></g><g fill="#ffffff" fill-opacity="1"><g transform="translate(133.788916, 68.317842)"><g><path d="M 13.34375 0.796875 C 12.34375 0.796875 11.5625 0.539062 11 0.03125 C 10.445312 -0.46875 10.171875 -1.125 10.171875 -1.9375 C 10.171875 -2.28125 10.226562 -2.675781 10.34375 -3.125 C 10.46875 -3.570312 10.597656 -4.019531 10.734375 -4.46875 C 11.097656 -5.6875 11.28125 -6.585938 11.28125 -7.171875 C 11.28125 -7.703125 11.148438 -8.09375 10.890625 -8.34375 C 10.628906 -8.59375 10.300781 -8.71875 9.90625 -8.71875 C 8.5 -8.71875 7.082031 -7.835938 5.65625 -6.078125 C 4.238281 -4.328125 2.707031 -2.101562 1.0625 0.59375 C -0.0703125 0.59375 -0.925781 0.210938 -1.5 -0.546875 L -1.15625 -1.546875 C 0.40625 -5.316406 1.1875 -8.113281 1.1875 -9.9375 C 1.394531 -10.175781 1.695312 -10.394531 2.09375 -10.59375 C 2.488281 -10.789062 2.875 -10.890625 3.25 -10.890625 C 3.695312 -10.890625 4.039062 -10.785156 4.28125 -10.578125 C 4.519531 -10.367188 4.640625 -10.078125 4.640625 -9.703125 C 4.640625 -8.992188 4.414062 -7.816406 3.96875 -6.171875 C 5.15625 -7.765625 6.382812 -9.0625 7.65625 -10.0625 C 8.9375 -11.0625 10.203125 -11.5625 11.453125 -11.5625 C 12.503906 -11.5625 13.320312 -11.195312 13.90625 -10.46875 C 14.488281 -9.75 14.78125 -8.882812 14.78125 -7.875 C 14.78125 -7.300781 14.707031 -6.75 14.5625 -6.21875 C 14.414062 -5.6875 14.195312 -5.09375 13.90625 -4.4375 C 13.457031 -3.320312 13.234375 -2.488281 13.234375 -1.9375 C 13.234375 -1.539062 13.320312 -1.25 13.5 -1.0625 C 13.6875 -0.882812 13.914062 -0.796875 14.1875 -0.796875 C 15.050781 -0.796875 15.988281 -1.394531 17 -2.59375 C 18.019531 -3.789062 18.941406 -5.210938 19.765625 -6.859375 L 20.4375 -6.296875 C 19.488281 -4.109375 18.4375 -2.378906 17.28125 -1.109375 C 16.132812 0.160156 14.820312 0.796875 13.34375 0.796875 Z M 13.34375 0.796875 "/></g></g></g><g fill="#ffffff" fill-opacity="1"><g transform="translate(152.517245, 68.317842)"><g><path d="M 1.984375 11.09375 C 1.242188 11.09375 0.609375 10.875 0.078125 10.4375 C -0.453125 10 -0.71875 9.375 -0.71875 8.5625 C -0.71875 7.53125 -0.328125 6.585938 0.453125 5.734375 C 1.234375 4.890625 2.140625 4.171875 3.171875 3.578125 C 4.203125 2.984375 5.5625 2.289062 7.25 1.5 C 7.90625 -0.15625 8.429688 -1.804688 8.828125 -3.453125 C 6.691406 -0.753906 4.6875 0.59375 2.8125 0.59375 C 1.757812 0.59375 0.921875 0.222656 0.296875 -0.515625 C -0.328125 -1.253906 -0.640625 -2.234375 -0.640625 -3.453125 C -0.640625 -5.210938 -0.0546875 -6.882812 1.109375 -8.46875 C 2.273438 -10.0625 3.710938 -11.335938 5.421875 -12.296875 C 7.140625 -13.265625 8.78125 -13.75 10.34375 -13.75 C 11.15625 -13.75 11.78125 -13.601562 12.21875 -13.3125 C 12.65625 -13.019531 12.875 -12.660156 12.875 -12.234375 C 12.875 -11.972656 12.789062 -11.734375 12.625 -11.515625 C 12.46875 -11.304688 12.335938 -11.191406 12.234375 -11.171875 C 11.972656 -11.429688 11.707031 -11.613281 11.4375 -11.71875 C 11.175781 -11.832031 10.847656 -11.890625 10.453125 -11.890625 C 9.160156 -11.890625 7.90625 -11.40625 6.6875 -10.4375 C 5.476562 -9.46875 4.492188 -8.300781 3.734375 -6.9375 C 2.984375 -5.582031 2.609375 -4.363281 2.609375 -3.28125 C 2.609375 -2.757812 2.71875 -2.359375 2.9375 -2.078125 C 3.164062 -1.796875 3.46875 -1.65625 3.84375 -1.65625 C 4.550781 -1.65625 5.425781 -2.117188 6.46875 -3.046875 C 7.519531 -3.972656 8.554688 -5.160156 9.578125 -6.609375 C 9.867188 -8.085938 10.210938 -9.148438 10.609375 -9.796875 C 11.003906 -10.453125 11.570312 -10.78125 12.3125 -10.78125 C 12.65625 -10.78125 13.039062 -10.722656 13.46875 -10.609375 C 13.46875 -9.921875 13.175781 -8.546875 12.59375 -6.484375 C 12.007812 -4.429688 11.3125 -2.296875 10.5 -0.078125 C 11.820312 -0.628906 13.09375 -1.492188 14.3125 -2.671875 C 15.539062 -3.847656 16.421875 -5.203125 16.953125 -6.734375 L 17.671875 -6.015625 C 17.085938 -4.359375 16.046875 -2.851562 14.546875 -1.5 C 13.054688 -0.15625 11.535156 0.867188 9.984375 1.578125 C 8.765625 4.515625 7.5 6.832031 6.1875 8.53125 C 4.882812 10.238281 3.484375 11.09375 1.984375 11.09375 Z M 1.828125 9.265625 C 2.347656 9.265625 3.03125 8.773438 3.875 7.796875 C 4.726562 6.828125 5.601562 5.347656 6.5 3.359375 C 4.78125 4.210938 3.441406 5.015625 2.484375 5.765625 C 1.535156 6.515625 1.0625 7.3125 1.0625 8.15625 C 1.0625 8.5 1.132812 8.769531 1.28125 8.96875 C 1.425781 9.164062 1.609375 9.265625 1.828125 9.265625 Z M 1.828125 9.265625 "/></g></g></g><g fill="#ffffff" fill-opacity="1"><g transform="translate(168.483814, 68.317842)"><g/></g></g><g fill="#ffffff" fill-opacity="1"><g transform="translate(247.494026, 67.417979)"><g/></g></g><g fill="#ffffff" fill-opacity="1"><g transform="translate(257.808657, 67.417979)"><g><path d="M 9.234375 3.453125 C 6.691406 3.453125 5.394531 2.429688 5.34375 0.390625 C 5.34375 -0.296875 5.46875 -1.109375 5.71875 -2.046875 C 5.96875 -2.984375 6.304688 -4.109375 6.734375 -5.421875 C 7.609375 -8.066406 8.539062 -10.625 9.53125 -13.09375 C 10.519531 -15.5625 11.738281 -18.507812 13.1875 -21.9375 L 14.609375 -25.3125 C 11.992188 -25.28125 9.863281 -25.191406 8.21875 -25.046875 C 6.570312 -24.898438 4.835938 -24.671875 3.015625 -24.359375 C 3.171875 -25.921875 4.144531 -27.003906 5.9375 -27.609375 C 7.738281 -28.210938 10.257812 -28.515625 13.5 -28.515625 C 15.644531 -28.515625 18.300781 -28.359375 21.46875 -28.046875 C 24.238281 -27.773438 26.269531 -27.640625 27.5625 -27.640625 C 26.507812 -26.640625 25.101562 -26 23.34375 -25.71875 C 21.59375 -25.445312 19.488281 -25.3125 17.03125 -25.3125 C 14.863281 -19.976562 12.722656 -13.429688 10.609375 -5.671875 C 10.003906 -3.421875 9.601562 -1.804688 9.40625 -0.828125 C 9.207031 0.148438 9.109375 1.191406 9.109375 2.296875 C 9.109375 2.671875 9.148438 3.054688 9.234375 3.453125 Z M 9.234375 3.453125 "/></g></g></g><g fill="#ffffff" fill-opacity="1"><g transform="translate(279.193635, 67.417979)"><g><path d="M 1.828125 1.5 C 1.265625 1.5 0.851562 1.078125 0.59375 0.234375 C 0.332031 -0.609375 0.203125 -1.675781 0.203125 -2.96875 C 0.203125 -5.34375 0.945312 -8.570312 2.4375 -12.65625 C 3.925781 -16.738281 5.632812 -20.363281 7.5625 -23.53125 C 9.488281 -26.695312 11.0625 -28.28125 12.28125 -28.28125 C 12.8125 -28.28125 13.226562 -27.988281 13.53125 -27.40625 C 13.832031 -26.820312 13.984375 -26.175781 13.984375 -25.46875 C 13.984375 -24.25 13.539062 -22.625 12.65625 -20.59375 C 11.769531 -18.5625 10.609375 -16.601562 9.171875 -14.71875 C 7.734375 -12.832031 6.25 -11.4375 4.71875 -10.53125 C 3.8125 -8.15625 3.359375 -5.910156 3.359375 -3.796875 L 3.40625 -2.96875 C 3.457031 -3.050781 3.578125 -3.34375 3.765625 -3.84375 C 4.296875 -5.21875 4.847656 -6.457031 5.421875 -7.5625 C 6.003906 -8.675781 6.800781 -9.710938 7.8125 -10.671875 C 8.832031 -11.640625 10.019531 -12.125 11.375 -12.125 C 12.582031 -12.125 13.460938 -11.734375 14.015625 -10.953125 C 14.578125 -10.171875 14.859375 -9.253906 14.859375 -8.203125 C 14.859375 -7.585938 14.773438 -7.015625 14.609375 -6.484375 C 14.453125 -5.960938 14.21875 -5.289062 13.90625 -4.46875 C 13.851562 -4.363281 13.753906 -4.117188 13.609375 -3.734375 C 13.460938 -3.359375 13.351562 -3.015625 13.28125 -2.703125 C 13.21875 -2.398438 13.1875 -2.132812 13.1875 -1.90625 C 13.1875 -1.0625 13.546875 -0.640625 14.265625 -0.640625 C 14.835938 -0.640625 15.519531 -0.925781 16.3125 -1.5 C 17.101562 -2.082031 17.882812 -2.863281 18.65625 -3.84375 C 19.425781 -4.820312 20.085938 -5.878906 20.640625 -7.015625 L 21.265625 -6.34375 C 20.296875 -4.175781 19.113281 -2.414062 17.71875 -1.0625 C 16.332031 0.28125 14.847656 0.953125 13.265625 0.953125 C 12.285156 0.953125 11.523438 0.691406 10.984375 0.171875 C 10.441406 -0.335938 10.171875 -1.003906 10.171875 -1.828125 C 10.171875 -2.347656 10.359375 -3.296875 10.734375 -4.671875 C 11.128906 -5.960938 11.328125 -6.925781 11.328125 -7.5625 C 11.328125 -8.675781 10.851562 -9.234375 9.90625 -9.234375 C 8.945312 -9.234375 8.144531 -8.738281 7.5 -7.75 C 6.851562 -6.757812 6.125 -5.296875 5.3125 -3.359375 C 4.644531 -1.722656 4.0625 -0.503906 3.5625 0.296875 C 3.0625 1.097656 2.484375 1.5 1.828125 1.5 Z M 5.546875 -13.078125 C 6.628906 -14.046875 7.671875 -15.304688 8.671875 -16.859375 C 9.671875 -18.421875 10.488281 -19.9375 11.125 -21.40625 C 11.757812 -22.875 12.078125 -23.925781 12.078125 -24.5625 C 11.765625 -24.425781 11.195312 -23.78125 10.375 -22.625 C 9.5625 -21.476562 8.703125 -20.039062 7.796875 -18.3125 C 6.898438 -16.582031 6.148438 -14.835938 5.546875 -13.078125 Z M 5.546875 -13.078125 "/></g></g></g><g fill="#ffffff" fill-opacity="1"><g transform="translate(298.756926, 67.417979)"><g><path d="M 3.015625 1.1875 C 2.140625 1.1875 1.410156 0.78125 0.828125 -0.03125 C 0.242188 -0.851562 -0.046875 -1.820312 -0.046875 -2.9375 C -0.046875 -3.882812 0.164062 -5.070312 0.59375 -6.5 C 1.019531 -7.925781 1.515625 -9.164062 2.078125 -10.21875 C 2.648438 -11.269531 3.144531 -11.796875 3.5625 -11.796875 C 3.75 -11.796875 4.03125 -11.695312 4.40625 -11.5 C 4.789062 -11.300781 5.128906 -11.0625 5.421875 -10.78125 C 4.867188 -9.957031 4.296875 -8.78125 3.703125 -7.25 C 3.109375 -5.71875 2.8125 -4.394531 2.8125 -3.28125 C 2.8125 -2.78125 2.882812 -2.257812 3.03125 -1.71875 C 3.175781 -1.175781 3.5 -0.90625 4 -0.90625 C 4.976562 -0.90625 6.144531 -1.992188 7.5 -4.171875 C 8.863281 -6.359375 10.035156 -8.570312 11.015625 -10.8125 C 12.597656 -10.550781 13.390625 -10.101562 13.390625 -9.46875 C 13.390625 -9.414062 13.226562 -9.03125 12.90625 -8.3125 C 12.351562 -7.019531 11.878906 -5.816406 11.484375 -4.703125 C 11.085938 -3.597656 10.890625 -2.640625 10.890625 -1.828125 C 10.890625 -0.898438 11.25 -0.4375 11.96875 -0.4375 C 12.519531 -0.4375 13.179688 -0.691406 13.953125 -1.203125 C 14.734375 -1.722656 15.535156 -2.460938 16.359375 -3.421875 C 17.179688 -4.390625 17.894531 -5.503906 18.5 -6.765625 L 19.09375 -6.296875 C 18.507812 -4.867188 17.753906 -3.585938 16.828125 -2.453125 C 15.910156 -1.316406 14.914062 -0.425781 13.84375 0.21875 C 12.769531 0.863281 11.75 1.1875 10.78125 1.1875 C 9.613281 1.1875 8.863281 0.785156 8.53125 -0.015625 C 8.207031 -0.828125 8.046875 -1.90625 8.046875 -3.25 C 7.140625 -1.875 6.289062 -0.789062 5.5 0 C 4.707031 0.789062 3.878906 1.1875 3.015625 1.1875 Z M 3.015625 1.1875 "/></g></g></g><g fill="#ffffff" fill-opacity="1"><g transform="translate(316.221321, 67.417979)"><g/></g></g><g fill="#ffffff" fill-opacity="1"><g transform="translate(326.517788, 67.417979)"><g><path d="M 2.859375 3.453125 C 3.171875 1.441406 3.613281 -0.679688 4.1875 -2.921875 C 4.769531 -5.171875 5.695312 -8.238281 6.96875 -12.125 C 5.519531 -11.988281 4.660156 -11.910156 4.390625 -11.890625 C 4.390625 -12.679688 4.6875 -13.304688 5.28125 -13.765625 C 5.875 -14.222656 6.726562 -14.570312 7.84375 -14.8125 C 7.976562 -15.257812 8.148438 -15.75 8.359375 -16.28125 L 11.125 -24.40625 C 11.15625 -24.457031 11.242188 -24.6875 11.390625 -25.09375 C 11.535156 -25.5 11.609375 -25.898438 11.609375 -26.296875 C 11.609375 -26.515625 11.566406 -26.660156 11.484375 -26.734375 C 11.410156 -26.816406 11.28125 -26.859375 11.09375 -26.859375 C 10.40625 -26.859375 9.710938 -26.46875 9.015625 -25.6875 C 8.316406 -24.90625 7.726562 -23.96875 7.25 -22.875 C 6.769531 -21.78125 6.53125 -20.820312 6.53125 -20 C 6.53125 -19.582031 6.664062 -18.988281 6.9375 -18.21875 C 5.875 -18.21875 5.082031 -18.445312 4.5625 -18.90625 C 4.050781 -19.375 3.796875 -20.015625 3.796875 -20.828125 C 3.796875 -21.960938 4.25 -23.128906 5.15625 -24.328125 C 6.070312 -25.535156 7.191406 -26.535156 8.515625 -27.328125 C 9.835938 -28.117188 11.039062 -28.515625 12.125 -28.515625 C 12.914062 -28.515625 13.484375 -28.3125 13.828125 -27.90625 C 14.171875 -27.5 14.34375 -26.976562 14.34375 -26.34375 C 14.34375 -25.894531 14.234375 -25.328125 14.015625 -24.640625 L 11.125 -15.125 C 11.550781 -15.15625 12.210938 -15.171875 13.109375 -15.171875 C 15.484375 -15.171875 17.796875 -15.066406 20.046875 -14.859375 C 21.628906 -20.191406 22.921875 -24.019531 23.921875 -26.34375 C 24.179688 -26.925781 24.515625 -27.441406 24.921875 -27.890625 C 25.335938 -28.335938 25.957031 -28.5625 26.78125 -28.5625 C 26.21875 -27.050781 25.535156 -24.96875 24.734375 -22.3125 C 23.929688 -19.664062 23.222656 -17.113281 22.609375 -14.65625 L 24 -14.609375 C 24.894531 -14.554688 25.582031 -14.53125 26.0625 -14.53125 C 25.320312 -13.789062 24.644531 -13.300781 24.03125 -13.0625 C 23.425781 -12.832031 22.796875 -12.71875 22.140625 -12.71875 C 21.378906 -9.46875 20.804688 -6.640625 20.421875 -4.234375 C 20.035156 -1.835938 19.84375 0.0195312 19.84375 1.34375 C 19.84375 2.03125 19.910156 2.734375 20.046875 3.453125 C 18.691406 3.316406 17.769531 2.988281 17.28125 2.46875 C 16.800781 1.957031 16.5625 1.054688 16.5625 -0.234375 C 16.5625 -1.421875 16.765625 -2.945312 17.171875 -4.8125 C 17.578125 -6.675781 18.320312 -9.296875 19.40625 -12.671875 C 17.320312 -12.671875 15.5625 -12.648438 14.125 -12.609375 C 12.6875 -12.578125 11.398438 -12.503906 10.265625 -12.390625 C 10.203125 -12.234375 9.945312 -11.398438 9.5 -9.890625 C 9.050781 -8.390625 7.941406 -4.84375 6.171875 0.75 C 5.910156 1.625 5.441406 2.289062 4.765625 2.75 C 4.097656 3.21875 3.460938 3.453125 2.859375 3.453125 Z M 2.859375 3.453125 "/></g></g></g><g fill="#ffffff" fill-opacity="1"><g transform="translate(352.773781, 67.417979)"><g><path d="M 2.21875 1.859375 C 1.289062 1.859375 0.519531 1.554688 -0.09375 0.953125 C -0.71875 0.347656 -1.03125 -0.507812 -1.03125 -1.625 C -1.03125 -3.15625 -0.46875 -4.867188 0.65625 -6.765625 C 1.78125 -8.671875 3.210938 -10.285156 4.953125 -11.609375 C 6.691406 -12.929688 8.429688 -13.59375 10.171875 -13.59375 C 11.335938 -13.59375 12.3125 -13.289062 13.09375 -12.6875 C 13.875 -12.09375 14.265625 -11.335938 14.265625 -10.421875 C 14.265625 -9.203125 13.507812 -8.566406 12 -8.515625 C 12.945312 -8.222656 13.421875 -7.828125 13.421875 -7.328125 C 13.421875 -7.140625 13.328125 -6.859375 13.140625 -6.484375 C 12.960938 -6.117188 12.753906 -5.738281 12.515625 -5.34375 C 12.097656 -4.65625 11.769531 -4.050781 11.53125 -3.53125 C 11.289062 -3.019531 11.171875 -2.539062 11.171875 -2.09375 C 11.171875 -1.695312 11.269531 -1.359375 11.46875 -1.078125 C 11.664062 -0.804688 11.960938 -0.671875 12.359375 -0.671875 C 13.097656 -0.671875 14.039062 -1.1875 15.1875 -2.21875 C 16.332031 -3.25 17.445312 -4.796875 18.53125 -6.859375 L 19.296875 -6.09375 C 18.316406 -3.90625 17.097656 -2.144531 15.640625 -0.8125 C 14.191406 0.519531 12.726562 1.1875 11.25 1.1875 C 10.195312 1.1875 9.382812 0.835938 8.8125 0.140625 C 8.25 -0.554688 7.96875 -1.351562 7.96875 -2.25 C 6.769531 -0.832031 5.75 0.203125 4.90625 0.859375 C 4.0625 1.523438 3.164062 1.859375 2.21875 1.859375 Z M 3.046875 -0.15625 C 3.972656 -0.15625 5.050781 -0.820312 6.28125 -2.15625 C 7.507812 -3.488281 8.898438 -5.226562 10.453125 -7.375 L 11.25 -8.4375 C 11.332031 -8.570312 11.4375 -8.640625 11.5625 -8.640625 L 11.71875 -8.59375 C 11.851562 -9.019531 11.921875 -9.507812 11.921875 -10.0625 C 11.921875 -11.4375 11.367188 -12.125 10.265625 -12.125 C 9.097656 -12.125 7.878906 -11.5 6.609375 -10.25 C 5.347656 -9.007812 4.285156 -7.53125 3.421875 -5.8125 C 2.566406 -4.101562 2.140625 -2.640625 2.140625 -1.421875 C 2.140625 -0.972656 2.210938 -0.648438 2.359375 -0.453125 C 2.503906 -0.253906 2.734375 -0.15625 3.046875 -0.15625 Z M 13.109375 -16.203125 C 11.804688 -17.734375 10.257812 -19.179688 8.46875 -20.546875 C 8.5 -21.054688 8.640625 -21.441406 8.890625 -21.703125 C 9.140625 -21.960938 9.421875 -22.09375 9.734375 -22.09375 C 10.234375 -22.09375 10.828125 -21.800781 11.515625 -21.21875 C 12.203125 -20.644531 12.800781 -19.988281 13.3125 -19.25 C 13.832031 -18.507812 14.09375 -17.96875 14.09375 -17.625 C 14.09375 -17.382812 14 -17.117188 13.8125 -16.828125 C 13.625 -16.535156 13.390625 -16.328125 13.109375 -16.203125 Z M 13.109375 -16.203125 "/></g></g></g><path fill="#f7ad79" d="M 207.453125 46.355469 C 210.222656 46.433594 212.820312 47.164062 215.109375 48.390625 C 216.511719 49.144531 217.804688 50.082031 218.941406 51.175781 C 222.320312 54.433594 224.371094 59.046875 224.226562 64.109375 C 224.09375 68.785156 222.113281 72.964844 219.011719 75.988281 C 217.609375 75.5 216.316406 74.785156 215.179688 73.882812 C 218.089844 71.550781 219.992188 68.011719 220.109375 63.992188 C 220.230469 59.683594 218.261719 55.796875 215.125 53.304688 L 211.292969 51.199219 C 210.050781 50.765625 208.722656 50.511719 207.335938 50.472656 C 200.074219 50.265625 194.023438 55.984375 193.816406 63.246094 C 193.609375 70.507812 199.328125 76.558594 206.585938 76.765625 C 208.265625 76.8125 209.875 76.542969 211.363281 76.011719 C 212.5 77.105469 213.792969 78.046875 215.195312 78.800781 C 212.609375 80.207031 209.628906 80.972656 206.46875 80.882812 C 196.9375 80.613281 189.425781 72.664062 189.695312 63.128906 C 189.96875 53.59375 197.917969 46.082031 207.453125 46.355469 Z M 207.453125 46.355469 " fill-opacity="1" fillRule="nonzero"/><g clip-path="url(#e40cc3fbba)"><path fill="#f4ede7" d="M 206.96875 81.660156 C 209.960938 81.660156 212.933594 80.90625 215.566406 79.476562 C 215.8125 79.339844 215.96875 79.078125 215.96875 78.796875 C 215.964844 78.515625 215.808594 78.253906 215.5625 78.121094 C 214.21875 77.402344 212.984375 76.503906 211.898438 75.457031 C 211.6875 75.253906 211.378906 75.1875 211.105469 75.285156 C 209.660156 75.800781 208.152344 76.039062 206.609375 75.996094 C 199.785156 75.800781 194.390625 70.09375 194.585938 63.269531 C 194.777344 56.523438 200.210938 51.238281 206.953125 51.238281 C 207.074219 51.238281 207.191406 51.238281 207.3125 51.242188 C 208.566406 51.277344 209.800781 51.5 210.980469 51.90625 L 214.695312 53.949219 C 217.757812 56.402344 219.449219 60.050781 219.339844 63.972656 C 219.234375 67.609375 217.542969 71.003906 214.699219 73.28125 C 214.515625 73.429688 214.410156 73.652344 214.410156 73.886719 C 214.410156 74.121094 214.519531 74.339844 214.703125 74.484375 C 215.921875 75.453125 217.285156 76.203125 218.757812 76.714844 C 219.03125 76.8125 219.335938 76.742188 219.546875 76.539062 C 222.925781 73.25 224.859375 68.84375 224.996094 64.132812 C 225.140625 59.066406 223.125 54.140625 219.472656 50.621094 C 218.285156 49.480469 216.941406 48.5 215.472656 47.710938 C 212.988281 46.378906 210.296875 45.664062 207.472656 45.585938 C 207.300781 45.578125 207.125 45.578125 206.953125 45.578125 C 202.242188 45.578125 197.78125 47.386719 194.394531 50.671875 C 191.003906 53.964844 189.0625 58.378906 188.925781 63.105469 C 188.644531 73.050781 196.503906 81.371094 206.449219 81.652344 C 206.621094 81.660156 206.796875 81.660156 206.96875 81.660156 Z M 213.574219 78.738281 C 211.5 79.644531 209.242188 80.121094 206.96875 80.121094 C 206.808594 80.121094 206.652344 80.121094 206.492188 80.113281 C 197.398438 79.855469 190.207031 72.246094 190.464844 63.152344 C 190.726562 54 198.222656 46.859375 207.429688 47.125 C 210.011719 47.195312 212.472656 47.851562 214.742188 49.066406 C 216.089844 49.789062 217.320312 50.683594 218.40625 51.730469 C 221.746094 54.949219 223.589844 59.453125 223.457031 64.089844 C 223.339844 68.234375 221.695312 72.125 218.8125 75.09375 C 217.96875 74.761719 217.167969 74.339844 216.414062 73.835938 C 219.15625 71.296875 220.769531 67.773438 220.878906 64.015625 C 221.003906 59.582031 219.082031 55.460938 215.601562 52.703125 C 215.566406 52.675781 215.53125 52.652344 215.496094 52.632812 L 211.664062 50.527344 C 211.628906 50.503906 211.589844 50.488281 211.546875 50.472656 C 210.199219 50.003906 208.789062 49.746094 207.355469 49.703125 C 203.570312 49.601562 199.972656 51 197.265625 53.628906 C 194.648438 56.167969 193.148438 59.578125 193.046875 63.222656 C 192.828125 70.898438 198.894531 77.316406 206.566406 77.535156 C 208.140625 77.578125 209.683594 77.363281 211.171875 76.886719 C 211.917969 77.570312 212.722656 78.1875 213.574219 78.738281 Z M 213.574219 78.738281 " fill-opacity="1" fillRule="nonzero"/></g><path fill="#f7ad79" d="M 211.292969 51.199219 C 212.695312 51.6875 213.988281 52.40625 215.125 53.304688 C 212.214844 55.636719 210.3125 59.179688 210.195312 63.195312 C 210.074219 67.507812 212.042969 71.394531 215.179688 73.882812 C 216.316406 74.785156 217.609375 75.5 219.011719 75.988281 C 220.253906 76.421875 221.582031 76.675781 222.96875 76.714844 C 230.230469 76.921875 236.28125 71.203125 236.488281 63.941406 C 236.695312 56.683594 230.976562 50.628906 223.71875 50.421875 C 222.039062 50.375 220.429688 50.648438 218.941406 51.175781 C 217.804688 50.082031 216.511719 49.144531 215.109375 48.390625 C 217.695312 46.980469 220.675781 46.214844 223.835938 46.304688 C 233.367188 46.574219 240.878906 54.523438 240.609375 64.058594 C 240.335938 73.59375 232.386719 81.105469 222.851562 80.835938 C 220.082031 80.753906 217.484375 80.023438 215.199219 78.800781 C 213.792969 78.046875 212.5 77.105469 211.363281 76.011719 C 207.984375 72.753906 205.933594 68.140625 206.078125 63.078125 C 206.210938 58.40625 208.191406 54.222656 211.292969 51.199219 Z M 211.292969 51.199219 " fill-opacity="1" fillRule="nonzero"/><g clip-path="url(#8ce3d5886a)"><path fill="#f4ede7" d="M 223.351562 81.613281 C 228.0625 81.613281 232.519531 79.800781 235.90625 76.515625 C 239.300781 73.222656 241.242188 68.808594 241.375 64.082031 C 241.660156 54.136719 233.800781 45.816406 223.855469 45.535156 C 223.683594 45.53125 223.507812 45.527344 223.335938 45.527344 C 220.34375 45.527344 217.371094 46.285156 214.738281 47.714844 C 214.492188 47.847656 214.335938 48.109375 214.339844 48.390625 C 214.339844 48.675781 214.496094 48.933594 214.742188 49.066406 C 216.089844 49.789062 217.320312 50.683594 218.40625 51.730469 C 218.617188 51.933594 218.921875 52 219.199219 51.902344 C 220.644531 51.386719 222.15625 51.148438 223.695312 51.191406 C 230.519531 51.386719 235.914062 57.097656 235.71875 63.921875 C 235.527344 70.667969 230.09375 75.953125 223.351562 75.949219 C 223.230469 75.949219 223.113281 75.949219 222.992188 75.945312 C 221.714844 75.910156 220.460938 75.679688 219.261719 75.261719 C 217.957031 74.804688 216.742188 74.140625 215.660156 73.277344 C 212.566406 70.828125 210.855469 67.160156 210.964844 63.21875 C 211.070312 59.582031 212.761719 56.1875 215.605469 53.90625 C 215.789062 53.761719 215.894531 53.539062 215.894531 53.304688 C 215.894531 53.070312 215.785156 52.847656 215.601562 52.703125 C 214.382812 51.734375 213.015625 50.984375 211.546875 50.472656 C 211.273438 50.375 210.964844 50.445312 210.757812 50.648438 C 207.378906 53.941406 205.441406 58.347656 205.308594 63.054688 C 205.164062 68.125 207.175781 73.046875 210.828125 76.566406 C 212.019531 77.710938 213.367188 78.691406 214.832031 79.476562 C 217.316406 80.808594 220.007812 81.523438 222.832031 81.605469 C 223.003906 81.609375 223.179688 81.613281 223.351562 81.613281 Z M 223.335938 47.066406 C 223.496094 47.066406 223.652344 47.070312 223.8125 47.074219 C 232.90625 47.332031 240.097656 54.941406 239.839844 64.039062 C 239.582031 73.027344 232.339844 80.070312 223.351562 80.070312 C 223.191406 80.070312 223.035156 80.070312 222.875 80.066406 C 220.292969 79.992188 217.832031 79.335938 215.5625 78.121094 C 214.21875 77.402344 212.984375 76.503906 211.898438 75.457031 C 208.558594 72.238281 206.714844 67.734375 206.847656 63.101562 C 206.964844 58.953125 208.609375 55.0625 211.492188 52.09375 C 212.335938 52.425781 213.136719 52.847656 213.890625 53.355469 C 211.148438 55.890625 209.535156 59.417969 209.425781 63.171875 C 209.300781 67.605469 211.222656 71.726562 214.703125 74.484375 C 215.921875 75.453125 217.285156 76.203125 218.757812 76.714844 C 220.101562 77.183594 221.511719 77.445312 222.949219 77.484375 C 226.738281 77.585938 230.328125 76.1875 233.039062 73.558594 C 235.65625 71.019531 237.15625 67.613281 237.257812 63.964844 C 237.476562 56.292969 231.410156 49.871094 223.738281 49.652344 C 222.164062 49.609375 220.621094 49.828125 219.132812 50.300781 C 218.386719 49.621094 217.582031 49 216.730469 48.453125 C 218.804688 47.542969 221.066406 47.066406 223.335938 47.066406 Z M 223.335938 47.066406 " fill-opacity="1" fillRule="nonzero"/></g><path fill="#e83f62" d="M 219.179688 34.625 C 221.5 34.625 223.386719 36.273438 223.386719 38.308594 C 223.386719 36.273438 225.265625 34.625 227.589844 34.625 C 229.539062 34.625 231.585938 36.25 231.703125 38.191406 C 231.859375 40.785156 229.96875 43.210938 228.210938 44.898438 C 226.949219 46.109375 225.53125 47.230469 224.082031 48.207031 C 224.023438 48.246094 223.472656 48.671875 223.386719 48.625 C 219.9375 46.691406 214.972656 42.71875 214.972656 38.308594 C 214.972656 36.273438 216.855469 34.625 219.179688 34.625 Z M 219.179688 34.625 " fill-opacity="1" fillRule="nonzero"/><g clip-path="url(#9bd39158ab)"><path fill="#f4ede7" d="M 223.402344 49.398438 C 223.714844 49.398438 223.976562 49.238281 224.488281 48.863281 L 224.523438 48.839844 C 226.066406 47.796875 227.492188 46.65625 228.742188 45.453125 C 231.359375 42.9375 232.613281 40.480469 232.472656 38.144531 C 232.332031 35.859375 230.050781 33.855469 227.589844 33.855469 C 225.824219 33.855469 224.269531 34.683594 223.386719 35.929688 C 222.503906 34.683594 220.945312 33.855469 219.179688 33.855469 C 216.433594 33.855469 214.203125 35.851562 214.203125 38.308594 C 214.203125 42.773438 218.75 46.910156 223.007812 49.296875 C 223.125 49.359375 223.269531 49.398438 223.402344 49.398438 Z M 227.589844 35.394531 C 229.21875 35.394531 230.847656 36.777344 230.933594 38.238281 C 231.078125 40.5625 229.242188 42.839844 227.675781 44.34375 C 226.503906 45.46875 225.113281 46.585938 223.652344 47.570312 C 223.636719 47.582031 223.613281 47.597656 223.578125 47.621094 C 223.511719 47.671875 223.453125 47.714844 223.40625 47.746094 C 219.792969 45.640625 215.742188 41.988281 215.742188 38.308594 C 215.742188 36.699219 217.285156 35.394531 219.179688 35.394531 C 221.074219 35.394531 222.617188 36.699219 222.617188 38.308594 C 222.617188 38.734375 222.960938 39.078125 223.386719 39.078125 C 223.8125 39.078125 224.15625 38.734375 224.15625 38.308594 C 224.15625 36.699219 225.695312 35.394531 227.589844 35.394531 Z M 227.589844 35.394531 " fill-opacity="1" fillRule="nonzero"/></g><path fill="#e83f62" d="M 221.078125 44.789062 C 221.621094 45.289062 221.585938 45.246094 222.308594 45.707031 " fill-opacity="1" fillRule="nonzero"/><path fill="#f4ede7" d="M 222.308594 46.257812 C 222.488281 46.257812 222.667969 46.167969 222.773438 46.003906 C 222.9375 45.746094 222.859375 45.40625 222.605469 45.242188 L 222.398438 45.113281 C 221.898438 44.796875 221.898438 44.796875 221.453125 44.382812 C 221.226562 44.179688 220.878906 44.191406 220.675781 44.417969 C 220.46875 44.640625 220.484375 44.988281 220.707031 45.195312 C 221.214844 45.660156 221.269531 45.699219 221.808594 46.042969 L 222.011719 46.171875 C 222.105469 46.230469 222.207031 46.257812 222.308594 46.257812 Z M 222.308594 46.257812 " fill-opacity="1" fillRule="nonzero"/><path fill="#e83f62" d="M 218.140625 41.117188 C 218.140625 41.117188 218.113281 42.136719 219.738281 43.636719 " fill-opacity="1" fillRule="nonzero"/><path fill="#f4ede7" d="M 219.738281 44.183594 C 219.886719 44.183594 220.035156 44.125 220.144531 44.007812 C 220.347656 43.785156 220.335938 43.4375 220.113281 43.230469 C 218.738281 41.964844 218.691406 41.121094 218.691406 41.113281 C 218.699219 40.8125 218.460938 40.566406 218.15625 40.558594 C 217.851562 40.554688 217.597656 40.796875 217.589844 41.101562 C 217.585938 41.230469 217.605469 42.421875 219.367188 44.039062 C 219.472656 44.136719 219.605469 44.183594 219.738281 44.183594 Z M 219.738281 44.183594 " fill-opacity="1" fillRule="nonzero"/><path fill="#e83f62" d="M 189.78125 42.09375 L 193.65625 46.585938 " fill-opacity="1" fillRule="nonzero"/><path fill="#f4ede7" d="M 193.65625 47.355469 C 193.832031 47.355469 194.011719 47.292969 194.15625 47.167969 C 194.480469 46.890625 194.515625 46.40625 194.238281 46.082031 L 190.367188 41.59375 C 190.085938 41.269531 189.601562 41.234375 189.28125 41.511719 C 188.957031 41.789062 188.921875 42.273438 189.199219 42.597656 L 193.070312 47.089844 C 193.222656 47.265625 193.4375 47.355469 193.65625 47.355469 Z M 193.65625 47.355469 " fill-opacity="1" fillRule="nonzero"/><path fill="#e83f62" d="M 196.492188 37.746094 L 195.996094 44.5625 " fill-opacity="1" fillRule="nonzero"/><path fill="#f4ede7" d="M 196 45.332031 C 196.398438 45.332031 196.734375 45.023438 196.765625 44.617188 L 197.261719 37.800781 C 197.289062 37.375 196.972656 37.007812 196.546875 36.976562 C 196.125 36.949219 195.753906 37.265625 195.726562 37.6875 L 195.230469 44.507812 C 195.199219 44.929688 195.519531 45.300781 195.941406 45.328125 C 195.960938 45.332031 195.980469 45.332031 196 45.332031 Z M 196 45.332031 " fill-opacity="1" fillRule="nonzero"/><path fill="#e83f62" d="M 184.507812 48.105469 L 191.324219 48.601562 " fill-opacity="1" fillRule="nonzero"/><g clip-path="url(#fe79e59b97)"><path fill="#f4ede7" d="M 191.324219 49.371094 C 191.726562 49.371094 192.0625 49.0625 192.09375 48.65625 C 192.125 48.234375 191.804688 47.863281 191.378906 47.832031 L 184.566406 47.339844 C 184.144531 47.308594 183.773438 47.625 183.742188 48.050781 C 183.710938 48.476562 184.027344 48.84375 184.453125 48.875 L 191.269531 49.367188 C 191.289062 49.371094 191.308594 49.371094 191.324219 49.371094 Z M 191.324219 49.371094 " fill-opacity="1" fillRule="nonzero"/></g><path fill="#f4ede7" d="M 223.6875 79.355469 C 226.144531 79.355469 228.246094 78.695312 229.792969 77.988281 C 230.070312 77.863281 230.191406 77.535156 230.0625 77.261719 C 229.9375 76.984375 229.609375 76.863281 229.335938 76.988281 C 227.054688 78.03125 223.472656 78.964844 219.34375 77.492188 C 219.058594 77.390625 218.746094 77.539062 218.644531 77.824219 C 218.539062 78.113281 218.691406 78.425781 218.976562 78.527344 C 220.644531 79.125 222.226562 79.355469 223.6875 79.355469 Z M 223.6875 79.355469 " fill-opacity="1" fillRule="nonzero"/><path fill="#f4ede7" d="M 230.949219 77.320312 C 231.042969 77.320312 231.140625 77.296875 231.226562 77.246094 C 232.707031 76.382812 233.558594 75.585938 233.597656 75.550781 C 233.816406 75.34375 233.828125 74.996094 233.617188 74.773438 C 233.410156 74.554688 233.0625 74.542969 232.839844 74.75 C 232.832031 74.757812 232.035156 75.503906 230.671875 76.296875 C 230.410156 76.449219 230.320312 76.785156 230.472656 77.046875 C 230.574219 77.222656 230.761719 77.320312 230.949219 77.320312 Z M 230.949219 77.320312 " fill-opacity="1" fillRule="nonzero"/></svg>
